<?xml version="1.0" encoding="UTF-8" standalone="no"?>
<!DOCTYPE svg PUBLIC "-//W3C//DTD SVG 1.1//EN"
 "http://www.w3.org/Graphics/SVG/1.1/DTD/svg11.dtd">
<!-- Generated by graphviz version 2.42.4 (0)
 -->
<!-- Pages: 1 -->
<svg width="2185pt" height="606pt"
 viewBox="0.00 0.00 2185.00 606.00" xmlns="http://www.w3.org/2000/svg" xmlns:xlink="http://www.w3.org/1999/xlink">
<g id="graph0" class="graph" transform="scale(1 1) rotate(0) translate(4 602)">
<polygon fill="white" stroke="transparent" points="-4,4 -4,-602 2181,-602 2181,4 -4,4"/>
<g id="clust1" class="cluster">
<title>cluster_0</title>
<polygon fill="none" stroke="black" points="8,-152 8,-590 1502,-590 1502,-152 8,-152"/>
<text text-anchor="middle" x="755" y="-574.8" font-family="Times,serif" font-size="14.00">zig_pkg_tool</text>
</g>
<g id="clust2" class="cluster">
<title>cluster_1</title>
<polygon fill="none" stroke="black" points="1510,-8 1510,-227 2169,-227 2169,-8 1510,-8"/>
<text text-anchor="middle" x="1839.5" y="-211.8" font-family="Times,serif" font-size="14.00">zg&#45;0.13.4&#45;AAAAAGiZ7QLz4pvECFa_wG4O4TP4FLABHHbemH2KakWM</text>
</g>
<!-- N0 -->
<g id="node1" class="node">
<title>N0</title>
<g id="a_node1"><a xlink:title="zig_pkg_tool">
<ellipse fill="#ffffff" stroke="black" cx="664" cy="-397" rx="39.79" ry="18"/>
<text text-anchor="middle" x="664" y="-393.3" font-family="Times,serif" font-size="14.00">install</text>
</a>
</g>
</g>
<!-- N1 -->
<g id="node2" class="node">
<title>N1</title>
<g id="a_node2"><a xlink:title="zig_pkg_tool">
<ellipse fill="#309430" stroke="black" cx="758" cy="-325" rx="96.38" ry="18"/>
<text text-anchor="middle" x="758" y="-321.3" font-family="Times,serif" font-size="14.00">install menuconfig</text>
</a>
</g>
</g>
<!-- N0&#45;&gt;N1 -->
<g id="edge1" class="edge">
<title>N0&#45;&gt;N1</title>
<path fill="none" stroke="black" d="M683.93,-381.15C696.64,-371.69 713.35,-359.25 727.68,-348.58"/>
<polygon fill="black" stroke="black" points="729.86,-351.32 735.79,-342.54 725.68,-345.7 729.86,-351.32"/>
</g>
<!-- N2 -->
<g id="node3" class="node">
<title>N2</title>
<g id="a_node3"><a xlink:title="zig_pkg_tool">
<ellipse fill="#8f6f6f" stroke="black" cx="1078" cy="-325" rx="205.26" ry="18"/>
<text text-anchor="middle" x="1078" y="-321.3" font-family="Times,serif" font-size="14.00">install generated to deppkg/deppkg.tar.gz</text>
</a>
</g>
</g>
<!-- N0&#45;&gt;N2 -->
<g id="edge2" class="edge">
<title>N0&#45;&gt;N2</title>
<path fill="none" stroke="black" d="M700.74,-389.79C762.35,-379.37 888.52,-358.04 977.96,-342.91"/>
<polygon fill="black" stroke="black" points="978.58,-346.36 987.86,-341.24 977.42,-339.46 978.58,-346.36"/>
</g>
<!-- N3 -->
<g id="node4" class="node">
<title>N3</title>
<g id="a_node4"><a xlink:title="zig_pkg_tool">
<ellipse fill="#309430" stroke="black" cx="570" cy="-325" rx="73.39" ry="18"/>
<text text-anchor="middle" x="570" y="-321.3" font-family="Times,serif" font-size="14.00">install zigpkg</text>
</a>
</g>
</g>
<!-- N0&#45;&gt;N3 -->
<g id="edge3" class="edge">
<title>N0&#45;&gt;N3</title>
<path fill="none" stroke="black" d="M644.07,-381.15C631.27,-371.63 614.42,-359.08 600.02,-348.36"/>
<polygon fill="black" stroke="black" points="601.99,-345.46 591.88,-342.29 597.81,-351.07 601.99,-345.46"/>
</g>
<!-- N4 -->
<g id="node5" class="node">
<title>N4</title>
<g id="a_node5"><a xlink:title="zig_pkg_tool">
<ellipse fill="#bdb76b" stroke="black" cx="430" cy="-325" rx="48.19" ry="18"/>
<text text-anchor="middle" x="430" y="-321.3" font-family="Times,serif" font-size="14.00">run test</text>
</a>
</g>
</g>
<!-- N0&#45;&gt;N4 -->
<g id="edge4" class="edge">
<title>N0&#45;&gt;N4</title>
<path fill="none" stroke="black" d="M631.46,-386.27C591.1,-374.19 522.02,-353.53 476.18,-339.82"/>
<polygon fill="black" stroke="black" points="477.07,-336.43 466.49,-336.92 475.07,-343.14 477.07,-336.43"/>
</g>
<!-- N5 -->
<g id="node6" class="node">
<title>N5</title>
<g id="a_node6"><a xlink:title="zig_pkg_tool">
<ellipse fill="#6495ed" stroke="black" cx="1303" cy="-253" rx="191.17" ry="18"/>
<text text-anchor="middle" x="1303" y="-249.3" font-family="Times,serif" font-size="14.00">zig build&#45;exe menuconfig Debug native</text>
</a>
</g>
</g>
<!-- N1&#45;&gt;N5 -->
<g id="edge5" class="edge">
<title>N1&#45;&gt;N5</title>
<path fill="none" stroke="black" d="M827.5,-312.46C839.66,-310.55 852.19,-308.66 864,-307 968.13,-292.37 1086.5,-278.22 1174.07,-268.23"/>
<polygon fill="black" stroke="black" points="1174.52,-271.7 1184.06,-267.09 1173.72,-264.75 1174.52,-271.7"/>
</g>
<!-- N11 -->
<g id="node12" class="node">
<title>N11</title>
<g id="a_node12"><a xlink:title="zig_pkg_tool">
<ellipse fill="#bdb76b" stroke="black" cx="952" cy="-253" rx="141.88" ry="18"/>
<text text-anchor="middle" x="952" y="-249.3" font-family="Times,serif" font-size="14.00">run pkg&#45;targz (depkg.tar.gz)</text>
</a>
</g>
</g>
<!-- N2&#45;&gt;N11 -->
<g id="edge11" class="edge">
<title>N2&#45;&gt;N11</title>
<path fill="none" stroke="black" d="M1047.5,-307.05C1030.63,-297.68 1009.48,-285.93 991.37,-275.87"/>
<polygon fill="black" stroke="black" points="992.66,-272.59 982.22,-270.79 989.26,-278.71 992.66,-272.59"/>
</g>
<!-- N13 -->
<g id="node14" class="node">
<title>N13</title>
<g id="a_node14"><a xlink:title="zig_pkg_tool">
<ellipse fill="#6495ed" stroke="black" cx="244" cy="-253" rx="168.17" ry="18"/>
<text text-anchor="middle" x="244" y="-249.3" font-family="Times,serif" font-size="14.00">zig build&#45;exe zigpkg Debug native</text>
</a>
</g>
</g>
<!-- N3&#45;&gt;N13 -->
<g id="edge13" class="edge">
<title>N3&#45;&gt;N13</title>
<path fill="none" stroke="black" d="M516.53,-312.52C464.6,-301.37 385.06,-284.29 325.29,-271.46"/>
<polygon fill="black" stroke="black" points="326.01,-268.03 315.5,-269.35 324.54,-274.87 326.01,-268.03"/>
</g>
<!-- N14 -->
<g id="node15" class="node">
<title>N14</title>
<g id="a_node15"><a xlink:title="zig_pkg_tool">
<ellipse fill="#6495ed" stroke="black" cx="541" cy="-253" rx="110.48" ry="18"/>
<text text-anchor="middle" x="541" y="-249.3" font-family="Times,serif" font-size="14.00">zig test Debug native</text>
</a>
</g>
</g>
<!-- N4&#45;&gt;N14 -->
<g id="edge14" class="edge">
<title>N4&#45;&gt;N14</title>
<path fill="none" stroke="black" d="M453.54,-309.15C468.82,-299.52 489.01,-286.79 506.14,-275.99"/>
<polygon fill="black" stroke="black" points="508.18,-278.83 514.77,-270.54 504.45,-272.91 508.18,-278.83"/>
</g>
<!-- N6 -->
<g id="node7" class="node">
<title>N6</title>
<g id="a_node7"><a xlink:title="zg&#45;0.13.4&#45;AAAAAGiZ7QLz4pvECFa_wG4O4TP4FLABHHbemH2KakWM">
<ellipse fill="#bdb76b" stroke="black" cx="2006" cy="-178" rx="100.18" ry="18"/>
<text text-anchor="middle" x="2006" y="-174.3" font-family="Times,serif" font-size="14.00">run gbp (gbp.bin.z)</text>
</a>
</g>
</g>
<!-- N5&#45;&gt;N6 -->
<g id="edge6" class="edge">
<title>N5&#45;&gt;N6</title>
<path fill="none" stroke="black" d="M1490.8,-249.54C1581,-246.52 1690.45,-240.16 1788,-227 1840.73,-219.89 1899.61,-206.59 1942.87,-195.8"/>
<polygon fill="black" stroke="black" points="1943.85,-199.16 1952.69,-193.33 1942.14,-192.38 1943.85,-199.16"/>
</g>
<!-- N7 -->
<g id="node8" class="node">
<title>N7</title>
<g id="a_node8"><a xlink:title="zg&#45;0.13.4&#45;AAAAAGiZ7QLz4pvECFa_wG4O4TP4FLABHHbemH2KakWM">
<ellipse fill="#bdb76b" stroke="black" cx="1675" cy="-178" rx="103.98" ry="18"/>
<text text-anchor="middle" x="1675" y="-174.3" font-family="Times,serif" font-size="14.00">run dwp (dwp.bin.z)</text>
</a>
</g>
</g>
<!-- N5&#45;&gt;N7 -->
<g id="edge7" class="edge">
<title>N5&#45;&gt;N7</title>
<path fill="none" stroke="black" d="M1429.64,-239.46C1455.05,-236.09 1481.46,-231.96 1506,-227 1544.2,-219.27 1586.37,-207.3 1619.03,-197.24"/>
<polygon fill="black" stroke="black" points="1620.34,-200.5 1628.85,-194.19 1618.26,-193.82 1620.34,-200.5"/>
</g>
<!-- N8 -->
<g id="node9" class="node">
<title>N8</title>
<g id="a_node9"><a xlink:title="zg&#45;0.13.4&#45;AAAAAGiZ7QLz4pvECFa_wG4O4TP4FLABHHbemH2KakWM">
<ellipse fill="#6495ed" stroke="black" cx="2006" cy="-106" rx="155.17" ry="18"/>
<text text-anchor="middle" x="2006" y="-102.3" font-family="Times,serif" font-size="14.00">zig build&#45;exe gbp Debug native</text>
</a>
</g>
</g>
<!-- N6&#45;&gt;N8 -->
<g id="edge8" class="edge">
<title>N6&#45;&gt;N8</title>
<path fill="none" stroke="black" d="M2006,-159.7C2006,-151.98 2006,-142.71 2006,-134.11"/>
<polygon fill="black" stroke="black" points="2009.5,-134.1 2006,-124.1 2002.5,-134.1 2009.5,-134.1"/>
</g>
<!-- N9 -->
<g id="node10" class="node">
<title>N9</title>
<g id="a_node10"><a xlink:title="zg&#45;0.13.4&#45;AAAAAGiZ7QLz4pvECFa_wG4O4TP4FLABHHbemH2KakWM">
<ellipse fill="#6495ed" stroke="black" cx="1675" cy="-106" rx="157.07" ry="18"/>
<text text-anchor="middle" x="1675" y="-102.3" font-family="Times,serif" font-size="14.00">zig build&#45;exe dwp Debug native</text>
</a>
</g>
</g>
<!-- N7&#45;&gt;N9 -->
<g id="edge9" class="edge">
<title>N7&#45;&gt;N9</title>
<path fill="none" stroke="black" d="M1675,-159.7C1675,-151.98 1675,-142.71 1675,-134.11"/>
<polygon fill="black" stroke="black" points="1678.5,-134.1 1675,-124.1 1671.5,-134.1 1678.5,-134.1"/>
</g>
<!-- N10 -->
<g id="node11" class="node">
<title>N10</title>
<g id="a_node11"><a xlink:title="zg&#45;0.13.4&#45;AAAAAGiZ7QLz4pvECFa_wG4O4TP4FLABHHbemH2KakWM">
<ellipse fill="#00ffff" stroke="black" cx="1675" cy="-34" rx="44.69" ry="18"/>
<text text-anchor="middle" x="1675" y="-30.3" font-family="Times,serif" font-size="14.00">options</text>
</a>
</g>
</g>
<!-- N9&#45;&gt;N10 -->
<g id="edge10" class="edge">
<title>N9&#45;&gt;N10</title>
<path fill="none" stroke="black" d="M1675,-87.7C1675,-79.98 1675,-70.71 1675,-62.11"/>
<polygon fill="black" stroke="black" points="1678.5,-62.1 1675,-52.1 1671.5,-62.1 1678.5,-62.1"/>
</g>
<!-- N12 -->
<g id="node13" class="node">
<title>N12</title>
<g id="a_node13"><a xlink:title="zig_pkg_tool">
<ellipse fill="#6495ed" stroke="black" cx="952" cy="-178" rx="181.97" ry="18"/>
<text text-anchor="middle" x="952" y="-174.3" font-family="Times,serif" font-size="14.00">zig build&#45;exe pkg&#45;targz Debug native</text>
</a>
</g>
</g>
<!-- N11&#45;&gt;N12 -->
<g id="edge12" class="edge">
<title>N11&#45;&gt;N12</title>
<path fill="none" stroke="black" d="M952,-234.7C952,-226.25 952,-215.87 952,-206.37"/>
<polygon fill="black" stroke="black" points="955.5,-206.18 952,-196.18 948.5,-206.18 955.5,-206.18"/>
</g>
<!-- N15 -->
<g id="node16" class="node">
<title>N15</title>
<g id="a_node16"><a xlink:title="zig_pkg_tool">
<ellipse fill="#ffffff" stroke="black" cx="1398" cy="-397" rx="27" ry="18"/>
<text text-anchor="middle" x="1398" y="-393.3" font-family="Times,serif" font-size="14.00">exe</text>
</a>
</g>
</g>
<!-- N16 -->
<g id="node17" class="node">
<title>N16</title>
<g id="a_node17"><a xlink:title="zig_pkg_tool">
<ellipse fill="#309430" stroke="black" cx="1398" cy="-325" rx="96.38" ry="18"/>
<text text-anchor="middle" x="1398" y="-321.3" font-family="Times,serif" font-size="14.00">install menuconfig</text>
</a>
</g>
</g>
<!-- N15&#45;&gt;N16 -->
<g id="edge15" class="edge">
<title>N15&#45;&gt;N16</title>
<path fill="none" stroke="black" d="M1398,-378.7C1398,-370.98 1398,-361.71 1398,-353.11"/>
<polygon fill="black" stroke="black" points="1401.5,-353.1 1398,-343.1 1394.5,-353.1 1401.5,-353.1"/>
</g>
<!-- N16&#45;&gt;N5 -->
<g id="edge16" class="edge">
<title>N16&#45;&gt;N5</title>
<path fill="none" stroke="black" d="M1375.49,-307.41C1363.13,-298.3 1347.61,-286.87 1334.11,-276.92"/>
<polygon fill="black" stroke="black" points="1336.14,-274.07 1326.01,-270.96 1331.99,-279.71 1336.14,-274.07"/>
</g>
<!-- N17 -->
<g id="node18" class="node">
<title>N17</title>
<g id="a_node18"><a xlink:title="zig_pkg_tool">
<ellipse fill="#ffffff" stroke="black" cx="1078" cy="-397" rx="44.69" ry="18"/>
<text text-anchor="middle" x="1078" y="-393.3" font-family="Times,serif" font-size="14.00">deppkg</text>
</a>
</g>
</g>
<!-- N17&#45;&gt;N2 -->
<g id="edge17" class="edge">
<title>N17&#45;&gt;N2</title>
<path fill="none" stroke="black" d="M1078,-378.7C1078,-370.98 1078,-361.71 1078,-353.11"/>
<polygon fill="black" stroke="black" points="1081.5,-353.1 1078,-343.1 1074.5,-353.1 1081.5,-353.1"/>
</g>
<!-- N18 -->
<g id="node19" class="node">
<title>N18</title>
<g id="a_node19"><a xlink:title="zig_pkg_tool">
<ellipse fill="#ffffff" stroke="black" cx="338" cy="-397" rx="41.69" ry="18"/>
<text text-anchor="middle" x="338" y="-393.3" font-family="Times,serif" font-size="14.00">zigpkg</text>
</a>
</g>
</g>
<!-- N19 -->
<g id="node20" class="node">
<title>N19</title>
<g id="a_node20"><a xlink:title="zig_pkg_tool">
<ellipse fill="#bdb76b" stroke="black" cx="303" cy="-325" rx="60.39" ry="18"/>
<text text-anchor="middle" x="303" y="-321.3" font-family="Times,serif" font-size="14.00">run zigpkg</text>
</a>
</g>
</g>
<!-- N18&#45;&gt;N19 -->
<g id="edge18" class="edge">
<title>N18&#45;&gt;N19</title>
<path fill="none" stroke="black" d="M329.53,-379.05C325.5,-371.01 320.6,-361.2 316.11,-352.23"/>
<polygon fill="black" stroke="black" points="319.24,-350.65 311.64,-343.28 312.98,-353.78 319.24,-350.65"/>
</g>
<!-- N19&#45;&gt;N13 -->
<g id="edge19" class="edge">
<title>N19&#45;&gt;N13</title>
<path fill="none" stroke="black" d="M289.02,-307.41C281.78,-298.82 272.79,-288.16 264.76,-278.63"/>
<polygon fill="black" stroke="black" points="267.41,-276.35 258.29,-270.96 262.06,-280.86 267.41,-276.35"/>
</g>
<!-- N20 -->
<g id="node21" class="node">
<title>N20</title>
<g id="a_node21"><a xlink:title="zig_pkg_tool">
<ellipse fill="#ffffff" stroke="black" cx="221" cy="-541" rx="27" ry="18"/>
<text text-anchor="middle" x="221" y="-537.3" font-family="Times,serif" font-size="14.00">dot</text>
</a>
</g>
</g>
<!-- N21 -->
<g id="node22" class="node">
<title>N21</title>
<g id="a_node22"><a xlink:title="zig_pkg_tool">
<ellipse fill="#ff44ff" stroke="black" cx="221" cy="-469" rx="99.38" ry="18"/>
<text text-anchor="middle" x="221" y="-465.3" font-family="Times,serif" font-size="14.00">UpdateSourceFiles</text>
</a>
</g>
</g>
<!-- N20&#45;&gt;N21 -->
<g id="edge20" class="edge">
<title>N20&#45;&gt;N21</title>
<path fill="none" stroke="black" d="M221,-522.7C221,-514.98 221,-505.71 221,-497.11"/>
<polygon fill="black" stroke="black" points="224.5,-497.1 221,-487.1 217.5,-497.1 224.5,-497.1"/>
</g>
<!-- N22 -->
<g id="node23" class="node">
<title>N22</title>
<g id="a_node23"><a xlink:title="zig_pkg_tool">
<ellipse fill="#bdb76b" stroke="black" cx="145" cy="-325" rx="79.09" ry="18"/>
<text text-anchor="middle" x="145" y="-321.3" font-family="Times,serif" font-size="14.00">dot generation</text>
</a>
</g>
</g>
<!-- N21&#45;&gt;N22 -->
<g id="edge21" class="edge">
<title>N21&#45;&gt;N22</title>
<path fill="none" stroke="black" d="M191.43,-451.65C178.04,-442.64 163.36,-430.19 155,-415 144.66,-396.21 142.56,-371.83 142.82,-353.34"/>
<polygon fill="black" stroke="black" points="146.32,-353.35 143.2,-343.22 139.33,-353.08 146.32,-353.35"/>
</g>
<!-- N23 -->
<g id="node24" class="node">
<title>N23</title>
<g id="a_node24"><a xlink:title="zig_pkg_tool">
<ellipse fill="#bdb76b" stroke="black" cx="221" cy="-397" rx="57.39" ry="18"/>
<text text-anchor="middle" x="221" y="-393.3" font-family="Times,serif" font-size="14.00">dot to svg</text>
</a>
</g>
</g>
<!-- N21&#45;&gt;N23 -->
<g id="edge22" class="edge">
<title>N21&#45;&gt;N23</title>
<path fill="none" stroke="black" d="M221,-450.7C221,-442.98 221,-433.71 221,-425.11"/>
<polygon fill="black" stroke="black" points="224.5,-425.1 221,-415.1 217.5,-425.1 224.5,-425.1"/>
</g>
<!-- N22&#45;&gt;N13 -->
<g id="edge23" class="edge">
<title>N22&#45;&gt;N13</title>
<path fill="none" stroke="black" d="M167.96,-307.76C180.92,-298.6 197.33,-287 211.58,-276.92"/>
<polygon fill="black" stroke="black" points="213.99,-279.51 220.13,-270.88 209.94,-273.79 213.99,-279.51"/>
</g>
<!-- N23&#45;&gt;N22 -->
<g id="edge24" class="edge">
<title>N23&#45;&gt;N22</title>
<path fill="none" stroke="black" d="M203.37,-379.76C193.63,-370.79 181.36,-359.49 170.58,-349.56"/>
<polygon fill="black" stroke="black" points="172.79,-346.83 163.06,-342.63 168.04,-351.98 172.79,-346.83"/>
</g>
<!-- N24 -->
<g id="node25" class="node">
<title>N24</title>
<g id="a_node25"><a xlink:title="zig_pkg_tool">
<ellipse fill="#ffffff" stroke="black" cx="430" cy="-397" rx="28.7" ry="18"/>
<text text-anchor="middle" x="430" y="-393.3" font-family="Times,serif" font-size="14.00">test</text>
</a>
</g>
</g>
<!-- N24&#45;&gt;N4 -->
<g id="edge25" class="edge">
<title>N24&#45;&gt;N4</title>
<path fill="none" stroke="black" d="M430,-378.7C430,-370.98 430,-361.71 430,-353.11"/>
<polygon fill="black" stroke="black" points="433.5,-353.1 430,-343.1 426.5,-353.1 433.5,-353.1"/>
</g>
<!-- N25 -->
<g id="node26" class="node">
<title>N25</title>
<g id="a_node26"><a xlink:title="zig_pkg_tool">
<ellipse fill="#ffffff" stroke="black" cx="60" cy="-541" rx="27" ry="18"/>
<text text-anchor="middle" x="60" y="-537.3" font-family="Times,serif" font-size="14.00">fmt</text>
</a>
</g>
</g>
<!-- N26 -->
<g id="node27" class="node">
<title>N26</title>
<g id="a_node27"><a xlink:title="zig_pkg_tool">
<ellipse fill="#ffff00" stroke="black" cx="60" cy="-469" rx="43.59" ry="18"/>
<text text-anchor="middle" x="60" y="-465.3" font-family="Times,serif" font-size="14.00">zig fmt</text>
</a>
</g>
</g>
<!-- N25&#45;&gt;N26 -->
<g id="edge26" class="edge">
<title>N25&#45;&gt;N26</title>
<path fill="none" stroke="black" d="M60,-522.7C60,-514.98 60,-505.71 60,-497.11"/>
<polygon fill="black" stroke="black" points="63.5,-497.1 60,-487.1 56.5,-497.1 63.5,-497.1"/>
</g>
</g>
</svg>
