<?xml version="1.0" encoding="UTF-8" standalone="no"?>
<!DOCTYPE svg PUBLIC "-//W3C//DTD SVG 1.1//EN"
 "http://www.w3.org/Graphics/SVG/1.1/DTD/svg11.dtd">
<!-- Generated by graphviz version 2.42.4 (0)
 -->
<!-- Pages: 1 -->
<svg width="1566pt" height="459pt"
 viewBox="0.00 0.00 1566.00 459.00" xmlns="http://www.w3.org/2000/svg" xmlns:xlink="http://www.w3.org/1999/xlink">
<g id="graph0" class="graph" transform="scale(1 1) rotate(0) translate(4 455)">
<polygon fill="white" stroke="transparent" points="-4,4 -4,-455 1562,-455 1562,4 -4,4"/>
<g id="clust1" class="cluster">
<title>cluster_0</title>
<polygon fill="none" stroke="black" points="8,-8 8,-443 1550,-443 1550,-8 8,-8"/>
<text text-anchor="middle" x="779" y="-427.8" font-family="Times,serif" font-size="14.00">zig_pkg_tool</text>
</g>
<!-- N0 -->
<g id="node1" class="node">
<title>N0</title>
<ellipse fill="#ffffff" stroke="black" cx="1023" cy="-250" rx="39.79" ry="18"/>
<text text-anchor="middle" x="1023" y="-246.3" font-family="Times,serif" font-size="14.00">install</text>
</g>
<!-- N1 -->
<g id="node2" class="node">
<title>N1</title>
<ellipse fill="#8f6f6f" stroke="black" cx="1337" cy="-178" rx="205.26" ry="18"/>
<text text-anchor="middle" x="1337" y="-174.3" font-family="Times,serif" font-size="14.00">install generated to deppkg/deppkg.tar.gz</text>
</g>
<!-- N0&#45;&gt;N1 -->
<g id="edge1" class="edge">
<title>N0&#45;&gt;N1</title>
<path fill="none" stroke="black" d="M1052.49,-237.81C1058.56,-235.71 1064.95,-233.67 1071,-232 1124.2,-217.36 1184.43,-205.02 1234.1,-195.94"/>
<polygon fill="black" stroke="black" points="1235,-199.33 1244.22,-194.11 1233.75,-192.45 1235,-199.33"/>
</g>
<!-- N5 -->
<g id="node3" class="node">
<title>N5</title>
<ellipse fill="#309430" stroke="black" cx="926" cy="-178" rx="73.39" ry="18"/>
<text text-anchor="middle" x="926" y="-174.3" font-family="Times,serif" font-size="14.00">install zigpkg</text>
</g>
<!-- N0&#45;&gt;N5 -->
<g id="edge2" class="edge">
<title>N0&#45;&gt;N5</title>
<path fill="none" stroke="black" d="M1002.43,-234.15C989.23,-224.63 971.83,-212.08 956.98,-201.36"/>
<polygon fill="black" stroke="black" points="958.73,-198.3 948.57,-195.29 954.63,-203.98 958.73,-198.3"/>
</g>
<!-- N7 -->
<g id="node4" class="node">
<title>N7</title>
<ellipse fill="#bdb76b" stroke="black" cx="1066" cy="-178" rx="48.19" ry="18"/>
<text text-anchor="middle" x="1066" y="-174.3" font-family="Times,serif" font-size="14.00">run test</text>
</g>
<!-- N0&#45;&gt;N7 -->
<g id="edge3" class="edge">
<title>N0&#45;&gt;N7</title>
<path fill="none" stroke="black" d="M1033.19,-232.41C1038.31,-224.08 1044.62,-213.8 1050.34,-204.49"/>
<polygon fill="black" stroke="black" points="1053.33,-206.31 1055.58,-195.96 1047.37,-202.65 1053.33,-206.31"/>
</g>
<!-- N2 -->
<g id="node5" class="node">
<title>N2</title>
<ellipse fill="#bdb76b" stroke="black" cx="1363" cy="-106" rx="146.77" ry="18"/>
<text text-anchor="middle" x="1363" y="-102.3" font-family="Times,serif" font-size="14.00">run exe zigpkg (depkg.tar.gz)</text>
</g>
<!-- N1&#45;&gt;N2 -->
<g id="edge4" class="edge">
<title>N1&#45;&gt;N2</title>
<path fill="none" stroke="black" d="M1343.43,-159.7C1346.36,-151.81 1349.89,-142.3 1353.14,-133.55"/>
<polygon fill="black" stroke="black" points="1356.45,-134.7 1356.65,-124.1 1349.88,-132.26 1356.45,-134.7"/>
</g>
<!-- N6 -->
<g id="node8" class="node">
<title>N6</title>
<ellipse fill="#6495ed" stroke="black" cx="751" cy="-106" rx="164.37" ry="18"/>
<text text-anchor="middle" x="751" y="-102.3" font-family="Times,serif" font-size="14.00">compile exe zigpkg Debug native</text>
</g>
<!-- N5&#45;&gt;N6 -->
<g id="edge7" class="edge">
<title>N5&#45;&gt;N6</title>
<path fill="none" stroke="black" d="M889.31,-162.33C863.94,-152.18 829.85,-138.54 801.86,-127.34"/>
<polygon fill="black" stroke="black" points="802.82,-123.96 792.23,-123.49 800.22,-130.46 802.82,-123.96"/>
</g>
<!-- N8 -->
<g id="node9" class="node">
<title>N8</title>
<ellipse fill="#6495ed" stroke="black" cx="1066" cy="-106" rx="132.68" ry="18"/>
<text text-anchor="middle" x="1066" y="-102.3" font-family="Times,serif" font-size="14.00">compile test Debug native</text>
</g>
<!-- N7&#45;&gt;N8 -->
<g id="edge8" class="edge">
<title>N7&#45;&gt;N8</title>
<path fill="none" stroke="black" d="M1066,-159.7C1066,-151.98 1066,-142.71 1066,-134.11"/>
<polygon fill="black" stroke="black" points="1069.5,-134.1 1066,-124.1 1062.5,-134.1 1069.5,-134.1"/>
</g>
<!-- N3 -->
<g id="node6" class="node">
<title>N3</title>
<ellipse fill="#6495ed" stroke="black" cx="1080" cy="-34" rx="164.37" ry="18"/>
<text text-anchor="middle" x="1080" y="-30.3" font-family="Times,serif" font-size="14.00">compile exe zigpkg Debug native</text>
</g>
<!-- N2&#45;&gt;N3 -->
<g id="edge5" class="edge">
<title>N2&#45;&gt;N3</title>
<path fill="none" stroke="black" d="M1300.89,-89.64C1257.39,-78.88 1199.08,-64.45 1153.3,-53.13"/>
<polygon fill="black" stroke="black" points="1153.98,-49.69 1143.43,-50.69 1152.3,-56.49 1153.98,-49.69"/>
</g>
<!-- N4 -->
<g id="node7" class="node">
<title>N4</title>
<ellipse fill="#3333aa" stroke="black" cx="1389" cy="-34" rx="126.18" ry="18"/>
<text text-anchor="middle" x="1389" y="-30.3" font-family="Times,serif" font-size="14.00">WriteFile buildgraph.zon</text>
</g>
<!-- N2&#45;&gt;N4 -->
<g id="edge6" class="edge">
<title>N2&#45;&gt;N4</title>
<path fill="none" stroke="black" d="M1369.43,-87.7C1372.36,-79.81 1375.89,-70.3 1379.14,-61.55"/>
<polygon fill="black" stroke="black" points="1382.45,-62.7 1382.65,-52.1 1375.88,-60.26 1382.45,-62.7"/>
</g>
<!-- N9 -->
<g id="node10" class="node">
<title>N9</title>
<ellipse fill="#ffffff" stroke="black" cx="1120" cy="-394" rx="51.19" ry="18"/>
<text text-anchor="middle" x="1120" y="-390.3" font-family="Times,serif" font-size="14.00">uninstall</text>
</g>
<!-- N10 -->
<g id="node11" class="node">
<title>N10</title>
<ellipse fill="#ffffff" stroke="black" cx="1337" cy="-250" rx="44.69" ry="18"/>
<text text-anchor="middle" x="1337" y="-246.3" font-family="Times,serif" font-size="14.00">deppkg</text>
</g>
<!-- N10&#45;&gt;N1 -->
<g id="edge9" class="edge">
<title>N10&#45;&gt;N1</title>
<path fill="none" stroke="black" d="M1337,-231.7C1337,-223.98 1337,-214.71 1337,-206.11"/>
<polygon fill="black" stroke="black" points="1340.5,-206.1 1337,-196.1 1333.5,-206.1 1340.5,-206.1"/>
</g>
<!-- N11 -->
<g id="node12" class="node">
<title>N11</title>
<ellipse fill="#ffffff" stroke="black" cx="771" cy="-250" rx="41.69" ry="18"/>
<text text-anchor="middle" x="771" y="-246.3" font-family="Times,serif" font-size="14.00">zigpkg</text>
</g>
<!-- N12 -->
<g id="node13" class="node">
<title>N12</title>
<ellipse fill="#bdb76b" stroke="black" cx="755" cy="-178" rx="79.09" ry="18"/>
<text text-anchor="middle" x="755" y="-174.3" font-family="Times,serif" font-size="14.00">run exe zigpkg</text>
</g>
<!-- N11&#45;&gt;N12 -->
<g id="edge10" class="edge">
<title>N11&#45;&gt;N12</title>
<path fill="none" stroke="black" d="M767.13,-232.05C765.35,-224.26 763.19,-214.82 761.19,-206.08"/>
<polygon fill="black" stroke="black" points="764.59,-205.24 758.95,-196.28 757.76,-206.8 764.59,-205.24"/>
</g>
<!-- N12&#45;&gt;N6 -->
<g id="edge11" class="edge">
<title>N12&#45;&gt;N6</title>
<path fill="none" stroke="black" d="M754.01,-159.7C753.57,-151.98 753.04,-142.71 752.55,-134.11"/>
<polygon fill="black" stroke="black" points="756.04,-133.89 751.98,-124.1 749.05,-134.29 756.04,-133.89"/>
</g>
<!-- N13 -->
<g id="node14" class="node">
<title>N13</title>
<ellipse fill="#ffffff" stroke="black" cx="1109" cy="-250" rx="28.7" ry="18"/>
<text text-anchor="middle" x="1109" y="-246.3" font-family="Times,serif" font-size="14.00">test</text>
</g>
<!-- N13&#45;&gt;N7 -->
<g id="edge12" class="edge">
<title>N13&#45;&gt;N7</title>
<path fill="none" stroke="black" d="M1099.03,-232.76C1093.84,-224.32 1087.38,-213.8 1081.55,-204.31"/>
<polygon fill="black" stroke="black" points="1084.43,-202.32 1076.22,-195.63 1078.47,-205.99 1084.43,-202.32"/>
</g>
<!-- N14 -->
<g id="node15" class="node">
<title>N14</title>
<ellipse fill="#ffffff" stroke="black" cx="654" cy="-394" rx="27" ry="18"/>
<text text-anchor="middle" x="654" y="-390.3" font-family="Times,serif" font-size="14.00">dot</text>
</g>
<!-- N15 -->
<g id="node16" class="node">
<title>N15</title>
<ellipse fill="#ff44ff" stroke="black" cx="654" cy="-322" rx="99.38" ry="18"/>
<text text-anchor="middle" x="654" y="-318.3" font-family="Times,serif" font-size="14.00">UpdateSourceFiles</text>
</g>
<!-- N14&#45;&gt;N15 -->
<g id="edge13" class="edge">
<title>N14&#45;&gt;N15</title>
<path fill="none" stroke="black" d="M654,-375.7C654,-367.98 654,-358.71 654,-350.11"/>
<polygon fill="black" stroke="black" points="657.5,-350.1 654,-340.1 650.5,-350.1 657.5,-350.1"/>
</g>
<!-- N16 -->
<g id="node17" class="node">
<title>N16</title>
<ellipse fill="#bdb76b" stroke="black" cx="578" cy="-178" rx="79.09" ry="18"/>
<text text-anchor="middle" x="578" y="-174.3" font-family="Times,serif" font-size="14.00">dot generation</text>
</g>
<!-- N15&#45;&gt;N16 -->
<g id="edge14" class="edge">
<title>N15&#45;&gt;N16</title>
<path fill="none" stroke="black" d="M624.43,-304.65C611.04,-295.64 596.36,-283.19 588,-268 577.66,-249.21 575.56,-224.83 575.82,-206.34"/>
<polygon fill="black" stroke="black" points="579.32,-206.35 576.2,-196.22 572.33,-206.08 579.32,-206.35"/>
</g>
<!-- N17 -->
<g id="node18" class="node">
<title>N17</title>
<ellipse fill="#bdb76b" stroke="black" cx="654" cy="-250" rx="57.39" ry="18"/>
<text text-anchor="middle" x="654" y="-246.3" font-family="Times,serif" font-size="14.00">dot to svg</text>
</g>
<!-- N15&#45;&gt;N17 -->
<g id="edge15" class="edge">
<title>N15&#45;&gt;N17</title>
<path fill="none" stroke="black" d="M654,-303.7C654,-295.98 654,-286.71 654,-278.11"/>
<polygon fill="black" stroke="black" points="657.5,-278.1 654,-268.1 650.5,-278.1 657.5,-278.1"/>
</g>
<!-- N16&#45;&gt;N6 -->
<g id="edge16" class="edge">
<title>N16&#45;&gt;N6</title>
<path fill="none" stroke="black" d="M615.11,-161.98C640.16,-151.85 673.51,-138.35 700.9,-127.27"/>
<polygon fill="black" stroke="black" points="702.36,-130.45 710.32,-123.46 699.74,-123.97 702.36,-130.45"/>
</g>
<!-- N17&#45;&gt;N16 -->
<g id="edge17" class="edge">
<title>N17&#45;&gt;N16</title>
<path fill="none" stroke="black" d="M636.37,-232.76C626.63,-223.79 614.36,-212.49 603.58,-202.56"/>
<polygon fill="black" stroke="black" points="605.79,-199.83 596.06,-195.63 601.04,-204.98 605.79,-199.83"/>
</g>
<!-- N18 -->
<g id="node19" class="node">
<title>N18</title>
<ellipse fill="#ffffff" stroke="black" cx="493" cy="-394" rx="27" ry="18"/>
<text text-anchor="middle" x="493" y="-390.3" font-family="Times,serif" font-size="14.00">fmt</text>
</g>
<!-- N19 -->
<g id="node20" class="node">
<title>N19</title>
<ellipse fill="#ffff00" stroke="black" cx="493" cy="-322" rx="43.59" ry="18"/>
<text text-anchor="middle" x="493" y="-318.3" font-family="Times,serif" font-size="14.00">zig fmt</text>
</g>
<!-- N18&#45;&gt;N19 -->
<g id="edge18" class="edge">
<title>N18&#45;&gt;N19</title>
<path fill="none" stroke="black" d="M493,-375.7C493,-367.98 493,-358.71 493,-350.11"/>
<polygon fill="black" stroke="black" points="496.5,-350.1 493,-340.1 489.5,-350.1 496.5,-350.1"/>
</g>
<!-- N20 -->
<g id="node21" class="node">
<title>N20</title>
<ellipse fill="#ffffff" stroke="black" cx="223" cy="-394" rx="90.98" ry="18"/>
<text text-anchor="middle" x="223" y="-390.3" font-family="Times,serif" font-size="14.00">update&#45;build&#45;tree</text>
</g>
<!-- N21 -->
<g id="node22" class="node">
<title>N21</title>
<ellipse fill="#ff44ff" stroke="black" cx="115" cy="-322" rx="99.38" ry="18"/>
<text text-anchor="middle" x="115" y="-318.3" font-family="Times,serif" font-size="14.00">UpdateSourceFiles</text>
</g>
<!-- N20&#45;&gt;N21 -->
<g id="edge19" class="edge">
<title>N20&#45;&gt;N21</title>
<path fill="none" stroke="black" d="M197.68,-376.59C183.16,-367.18 164.74,-355.24 148.98,-345.02"/>
<polygon fill="black" stroke="black" points="150.83,-342.05 140.54,-339.55 147.02,-347.93 150.83,-342.05"/>
</g>
<!-- N22 -->
<g id="node23" class="node">
<title>N22</title>
<ellipse fill="#ff44ff" stroke="black" cx="332" cy="-322" rx="99.38" ry="18"/>
<text text-anchor="middle" x="332" y="-318.3" font-family="Times,serif" font-size="14.00">UpdateSourceFiles</text>
</g>
<!-- N20&#45;&gt;N22 -->
<g id="edge20" class="edge">
<title>N20&#45;&gt;N22</title>
<path fill="none" stroke="black" d="M248.56,-376.59C263.21,-367.18 281.8,-355.24 297.71,-345.02"/>
<polygon fill="black" stroke="black" points="299.7,-347.9 306.23,-339.55 295.92,-342.01 299.7,-347.9"/>
</g>
</g>
</svg>
