<?xml version="1.0" encoding="UTF-8" standalone="no"?>
<!DOCTYPE svg PUBLIC "-//W3C//DTD SVG 1.1//EN"
 "http://www.w3.org/Graphics/SVG/1.1/DTD/svg11.dtd">
<!-- Generated by graphviz version 2.42.4 (0)
 -->
<!-- Pages: 1 -->
<svg width="1529pt" height="548pt"
 viewBox="0.00 0.00 1528.78 548.00" xmlns="http://www.w3.org/2000/svg" xmlns:xlink="http://www.w3.org/1999/xlink">
<g id="graph0" class="graph" transform="scale(1 1) rotate(0) translate(4 544)">
<polygon fill="white" stroke="transparent" points="-4,4 -4,-544 1524.78,-544 1524.78,4 -4,4"/>
<!-- N0 -->
<g id="node1" class="node">
<title>N0</title>
<ellipse fill="none" stroke="black" cx="934.29" cy="-378" rx="39.79" ry="18"/>
<text text-anchor="middle" x="934.29" y="-374.3" font-family="Times,serif" font-size="14.00">install</text>
</g>
<!-- N1 -->
<g id="node2" class="node">
<title>N1</title>
<ellipse fill="none" stroke="black" cx="450.29" cy="-306" rx="96.38" ry="18"/>
<text text-anchor="middle" x="450.29" y="-302.3" font-family="Times,serif" font-size="14.00">install menuconfig</text>
</g>
<!-- N0&#45;&gt;N1 -->
<g id="edge1" class="edge">
<title>N0&#45;&gt;N1</title>
<path fill="none" stroke="black" d="M897.11,-371.62C819.91,-360.46 640.57,-334.52 534.05,-319.11"/>
<polygon fill="black" stroke="black" points="534.37,-315.63 523.98,-317.66 533.37,-322.55 534.37,-315.63"/>
</g>
<!-- N2 -->
<g id="node3" class="node">
<title>N2</title>
<ellipse fill="none" stroke="black" cx="785.29" cy="-306" rx="205.26" ry="18"/>
<text text-anchor="middle" x="785.29" y="-302.3" font-family="Times,serif" font-size="14.00">install generated to deppkg/deppkg.tar.gz</text>
</g>
<!-- N0&#45;&gt;N2 -->
<g id="edge2" class="edge">
<title>N0&#45;&gt;N2</title>
<path fill="none" stroke="black" d="M907.65,-364.49C886.2,-354.41 855.57,-340.02 830.32,-328.16"/>
<polygon fill="black" stroke="black" points="831.47,-324.83 820.94,-323.75 828.5,-331.17 831.47,-324.83"/>
</g>
<!-- N3 -->
<g id="node4" class="node">
<title>N3</title>
<ellipse fill="none" stroke="black" cx="1082.29" cy="-306" rx="73.39" ry="18"/>
<text text-anchor="middle" x="1082.29" y="-302.3" font-family="Times,serif" font-size="14.00">install zigpkg</text>
</g>
<!-- N0&#45;&gt;N3 -->
<g id="edge3" class="edge">
<title>N0&#45;&gt;N3</title>
<path fill="none" stroke="black" d="M960.75,-364.49C983.03,-353.94 1015.3,-338.68 1040.99,-326.53"/>
<polygon fill="black" stroke="black" points="1042.58,-329.65 1050.13,-322.21 1039.59,-323.32 1042.58,-329.65"/>
</g>
<!-- N4 -->
<g id="node5" class="node">
<title>N4</title>
<ellipse fill="none" stroke="black" cx="1222.29" cy="-306" rx="48.19" ry="18"/>
<text text-anchor="middle" x="1222.29" y="-302.3" font-family="Times,serif" font-size="14.00">run test</text>
</g>
<!-- N0&#45;&gt;N4 -->
<g id="edge4" class="edge">
<title>N0&#45;&gt;N4</title>
<path fill="none" stroke="black" d="M969.51,-369.56C1014.78,-359.83 1095.7,-341.94 1164.29,-324 1168.17,-322.98 1172.19,-321.89 1176.22,-320.77"/>
<polygon fill="black" stroke="black" points="1177.52,-324.04 1186.18,-317.94 1175.6,-317.31 1177.52,-324.04"/>
</g>
<!-- N5 -->
<g id="node6" class="node">
<title>N5</title>
<ellipse fill="none" stroke="black" cx="434.29" cy="-234" rx="191.17" ry="18"/>
<text text-anchor="middle" x="434.29" y="-230.3" font-family="Times,serif" font-size="14.00">zig build&#45;exe menuconfig Debug native</text>
</g>
<!-- N1&#45;&gt;N5 -->
<g id="edge5" class="edge">
<title>N1&#45;&gt;N5</title>
<path fill="none" stroke="black" d="M446.33,-287.7C444.57,-279.98 442.45,-270.71 440.48,-262.11"/>
<polygon fill="black" stroke="black" points="443.84,-261.07 438.2,-252.1 437.01,-262.63 443.84,-261.07"/>
</g>
<!-- N11 -->
<g id="node12" class="node">
<title>N11</title>
<ellipse fill="none" stroke="black" cx="785.29" cy="-234" rx="141.88" ry="18"/>
<text text-anchor="middle" x="785.29" y="-230.3" font-family="Times,serif" font-size="14.00">run pkg&#45;targz (depkg.tar.gz)</text>
</g>
<!-- N2&#45;&gt;N11 -->
<g id="edge11" class="edge">
<title>N2&#45;&gt;N11</title>
<path fill="none" stroke="black" d="M785.29,-287.7C785.29,-279.98 785.29,-270.71 785.29,-262.11"/>
<polygon fill="black" stroke="black" points="788.79,-262.1 785.29,-252.1 781.79,-262.1 788.79,-262.1"/>
</g>
<!-- N13 -->
<g id="node14" class="node">
<title>N13</title>
<ellipse fill="none" stroke="black" cx="1113.29" cy="-234" rx="168.17" ry="18"/>
<text text-anchor="middle" x="1113.29" y="-230.3" font-family="Times,serif" font-size="14.00">zig build&#45;exe zigpkg Debug native</text>
</g>
<!-- N3&#45;&gt;N13 -->
<g id="edge13" class="edge">
<title>N3&#45;&gt;N13</title>
<path fill="none" stroke="black" d="M1089.79,-288.05C1093.32,-280.09 1097.6,-270.41 1101.55,-261.51"/>
<polygon fill="black" stroke="black" points="1104.79,-262.84 1105.64,-252.28 1098.39,-260 1104.79,-262.84"/>
</g>
<!-- N14 -->
<g id="node15" class="node">
<title>N14</title>
<ellipse fill="none" stroke="black" cx="1410.29" cy="-234" rx="110.48" ry="18"/>
<text text-anchor="middle" x="1410.29" y="-230.3" font-family="Times,serif" font-size="14.00">zig test Debug native</text>
</g>
<!-- N4&#45;&gt;N14 -->
<g id="edge14" class="edge">
<title>N4&#45;&gt;N14</title>
<path fill="none" stroke="black" d="M1255.03,-292.81C1283.57,-282.18 1325.44,-266.59 1358.51,-254.28"/>
<polygon fill="black" stroke="black" points="1359.87,-257.51 1368.02,-250.74 1357.43,-250.95 1359.87,-257.51"/>
</g>
<!-- N6 -->
<g id="node7" class="node">
<title>N6</title>
<ellipse fill="none" stroke="black" cx="460.29" cy="-162" rx="100.18" ry="18"/>
<text text-anchor="middle" x="460.29" y="-158.3" font-family="Times,serif" font-size="14.00">run gbp (gbp.bin.z)</text>
</g>
<!-- N5&#45;&gt;N6 -->
<g id="edge6" class="edge">
<title>N5&#45;&gt;N6</title>
<path fill="none" stroke="black" d="M440.71,-215.7C443.64,-207.81 447.17,-198.3 450.43,-189.55"/>
<polygon fill="black" stroke="black" points="453.73,-190.7 453.93,-180.1 447.17,-188.26 453.73,-190.7"/>
</g>
<!-- N7 -->
<g id="node8" class="node">
<title>N7</title>
<ellipse fill="none" stroke="black" cx="211.29" cy="-162" rx="103.98" ry="18"/>
<text text-anchor="middle" x="211.29" y="-158.3" font-family="Times,serif" font-size="14.00">run dwp (dwp.bin.z)</text>
</g>
<!-- N5&#45;&gt;N7 -->
<g id="edge7" class="edge">
<title>N5&#45;&gt;N7</title>
<path fill="none" stroke="black" d="M382.28,-216.68C348.29,-206 303.85,-192.06 268.8,-181.05"/>
<polygon fill="black" stroke="black" points="269.77,-177.69 259.18,-178.03 267.67,-184.37 269.77,-177.69"/>
</g>
<!-- N8 -->
<g id="node9" class="node">
<title>N8</title>
<ellipse fill="none" stroke="black" cx="488.29" cy="-90" rx="155.17" ry="18"/>
<text text-anchor="middle" x="488.29" y="-86.3" font-family="Times,serif" font-size="14.00">zig build&#45;exe gbp Debug native</text>
</g>
<!-- N6&#45;&gt;N8 -->
<g id="edge8" class="edge">
<title>N6&#45;&gt;N8</title>
<path fill="none" stroke="black" d="M467.21,-143.7C470.36,-135.81 474.16,-126.3 477.67,-117.55"/>
<polygon fill="black" stroke="black" points="480.98,-118.69 481.44,-108.1 474.48,-116.09 480.98,-118.69"/>
</g>
<!-- N9 -->
<g id="node10" class="node">
<title>N9</title>
<ellipse fill="none" stroke="black" cx="157.29" cy="-90" rx="157.07" ry="18"/>
<text text-anchor="middle" x="157.29" y="-86.3" font-family="Times,serif" font-size="14.00">zig build&#45;exe dwp Debug native</text>
</g>
<!-- N7&#45;&gt;N9 -->
<g id="edge9" class="edge">
<title>N7&#45;&gt;N9</title>
<path fill="none" stroke="black" d="M198.21,-144.05C191.81,-135.75 183.96,-125.58 176.86,-116.38"/>
<polygon fill="black" stroke="black" points="179.49,-114.06 170.61,-108.28 173.95,-118.33 179.49,-114.06"/>
</g>
<!-- N10 -->
<g id="node11" class="node">
<title>N10</title>
<ellipse fill="none" stroke="black" cx="157.29" cy="-18" rx="44.69" ry="18"/>
<text text-anchor="middle" x="157.29" y="-14.3" font-family="Times,serif" font-size="14.00">options</text>
</g>
<!-- N9&#45;&gt;N10 -->
<g id="edge10" class="edge">
<title>N9&#45;&gt;N10</title>
<path fill="none" stroke="black" d="M157.29,-71.7C157.29,-63.98 157.29,-54.71 157.29,-46.11"/>
<polygon fill="black" stroke="black" points="160.79,-46.1 157.29,-36.1 153.79,-46.1 160.79,-46.1"/>
</g>
<!-- N12 -->
<g id="node13" class="node">
<title>N12</title>
<ellipse fill="none" stroke="black" cx="785.29" cy="-162" rx="181.97" ry="18"/>
<text text-anchor="middle" x="785.29" y="-158.3" font-family="Times,serif" font-size="14.00">zig build&#45;exe pkg&#45;targz Debug native</text>
</g>
<!-- N11&#45;&gt;N12 -->
<g id="edge12" class="edge">
<title>N11&#45;&gt;N12</title>
<path fill="none" stroke="black" d="M785.29,-215.7C785.29,-207.98 785.29,-198.71 785.29,-190.11"/>
<polygon fill="black" stroke="black" points="788.79,-190.1 785.29,-180.1 781.79,-190.1 788.79,-190.1"/>
</g>
<!-- N15 -->
<g id="node16" class="node">
<title>N15</title>
<ellipse fill="none" stroke="black" cx="1388.29" cy="-522" rx="27" ry="18"/>
<text text-anchor="middle" x="1388.29" y="-518.3" font-family="Times,serif" font-size="14.00">dot</text>
</g>
<!-- N16 -->
<g id="node17" class="node">
<title>N16</title>
<ellipse fill="none" stroke="black" cx="1388.29" cy="-450" rx="99.38" ry="18"/>
<text text-anchor="middle" x="1388.29" y="-446.3" font-family="Times,serif" font-size="14.00">UpdateSourceFiles</text>
</g>
<!-- N15&#45;&gt;N16 -->
<g id="edge15" class="edge">
<title>N15&#45;&gt;N16</title>
<path fill="none" stroke="black" d="M1388.29,-503.7C1388.29,-495.98 1388.29,-486.71 1388.29,-478.11"/>
<polygon fill="black" stroke="black" points="1391.79,-478.1 1388.29,-468.1 1384.79,-478.1 1391.79,-478.1"/>
</g>
<!-- N17 -->
<g id="node18" class="node">
<title>N17</title>
<ellipse fill="none" stroke="black" cx="1367.29" cy="-306" rx="79.09" ry="18"/>
<text text-anchor="middle" x="1367.29" y="-302.3" font-family="Times,serif" font-size="14.00">dot generation</text>
</g>
<!-- N16&#45;&gt;N17 -->
<g id="edge16" class="edge">
<title>N16&#45;&gt;N17</title>
<path fill="none" stroke="black" d="M1399.05,-431.99C1409.09,-413.87 1421.28,-384.49 1412.29,-360 1408.38,-349.35 1401.27,-339.38 1393.85,-331.02"/>
<polygon fill="black" stroke="black" points="1396.15,-328.37 1386.72,-323.54 1391.08,-333.19 1396.15,-328.37"/>
</g>
<!-- N18 -->
<g id="node19" class="node">
<title>N18</title>
<ellipse fill="none" stroke="black" cx="1346.29" cy="-378" rx="57.39" ry="18"/>
<text text-anchor="middle" x="1346.29" y="-374.3" font-family="Times,serif" font-size="14.00">dot to svg</text>
</g>
<!-- N16&#45;&gt;N18 -->
<g id="edge17" class="edge">
<title>N16&#45;&gt;N18</title>
<path fill="none" stroke="black" d="M1378.12,-432.05C1373.17,-423.8 1367.11,-413.7 1361.61,-404.54"/>
<polygon fill="black" stroke="black" points="1364.51,-402.56 1356.36,-395.79 1358.5,-406.16 1364.51,-402.56"/>
</g>
<!-- N17&#45;&gt;N13 -->
<g id="edge18" class="edge">
<title>N17&#45;&gt;N13</title>
<path fill="none" stroke="black" d="M1318.91,-291.67C1279.84,-280.9 1224.39,-265.62 1180.92,-253.64"/>
<polygon fill="black" stroke="black" points="1181.85,-250.26 1171.28,-250.98 1179.99,-257.01 1181.85,-250.26"/>
</g>
<!-- N18&#45;&gt;N17 -->
<g id="edge19" class="edge">
<title>N18&#45;&gt;N17</title>
<path fill="none" stroke="black" d="M1351.37,-360.05C1353.71,-352.26 1356.54,-342.82 1359.16,-334.08"/>
<polygon fill="black" stroke="black" points="1362.58,-334.86 1362.1,-324.28 1355.88,-332.85 1362.58,-334.86"/>
</g>
<!-- N19 -->
<g id="node20" class="node">
<title>N19</title>
<ellipse fill="none" stroke="black" cx="1222.29" cy="-378" rx="28.7" ry="18"/>
<text text-anchor="middle" x="1222.29" y="-374.3" font-family="Times,serif" font-size="14.00">test</text>
</g>
<!-- N19&#45;&gt;N4 -->
<g id="edge20" class="edge">
<title>N19&#45;&gt;N4</title>
<path fill="none" stroke="black" d="M1222.29,-359.7C1222.29,-351.98 1222.29,-342.71 1222.29,-334.11"/>
<polygon fill="black" stroke="black" points="1225.79,-334.1 1222.29,-324.1 1218.79,-334.1 1225.79,-334.1"/>
</g>
</g>
</svg>
