<?xml version="1.0" encoding="UTF-8" standalone="no"?>
<!DOCTYPE svg PUBLIC "-//W3C//DTD SVG 1.1//EN"
 "http://www.w3.org/Graphics/SVG/1.1/DTD/svg11.dtd">
<!-- Generated by graphviz version 2.42.4 (0)
 -->
<!-- Pages: 1 -->
<svg width="1329pt" height="548pt"
 viewBox="0.00 0.00 1328.72 548.00" xmlns="http://www.w3.org/2000/svg" xmlns:xlink="http://www.w3.org/1999/xlink">
<g id="graph0" class="graph" transform="scale(1 1) rotate(0) translate(4 544)">
<polygon fill="white" stroke="transparent" points="-4,4 -4,-544 1324.72,-544 1324.72,4 -4,4"/>
<!-- N0 -->
<g id="node1" class="node">
<title>N0</title>
<ellipse fill="none" stroke="black" cx="616.38" cy="-378" rx="39.79" ry="18"/>
<text text-anchor="middle" x="616.38" y="-374.3" font-family="Times,serif" font-size="14.00">install</text>
</g>
<!-- N1 -->
<g id="node2" class="node">
<title>N1</title>
<ellipse fill="none" stroke="black" cx="697.38" cy="-306" rx="96.38" ry="18"/>
<text text-anchor="middle" x="697.38" y="-302.3" font-family="Times,serif" font-size="14.00">install menuconfig</text>
</g>
<!-- N0&#45;&gt;N1 -->
<g id="edge1" class="edge">
<title>N0&#45;&gt;N1</title>
<path fill="none" stroke="black" d="M633.96,-361.81C644.47,-352.73 658.05,-340.99 669.94,-330.71"/>
<polygon fill="black" stroke="black" points="672.58,-333.06 677.85,-323.88 668,-327.77 672.58,-333.06"/>
</g>
<!-- N2 -->
<g id="node3" class="node">
<title>N2</title>
<ellipse fill="none" stroke="black" cx="205.38" cy="-306" rx="205.26" ry="18"/>
<text text-anchor="middle" x="205.38" y="-302.3" font-family="Times,serif" font-size="14.00">install generated to deppkg/deppkg.tar.gz</text>
</g>
<!-- N0&#45;&gt;N2 -->
<g id="edge2" class="edge">
<title>N0&#45;&gt;N2</title>
<path fill="none" stroke="black" d="M579.91,-370.79C518.81,-360.38 393.74,-339.08 304.96,-323.96"/>
<polygon fill="black" stroke="black" points="305.31,-320.47 294.87,-322.24 304.14,-327.37 305.31,-320.47"/>
</g>
<!-- N3 -->
<g id="node4" class="node">
<title>N3</title>
<ellipse fill="none" stroke="black" cx="943.38" cy="-306" rx="73.39" ry="18"/>
<text text-anchor="middle" x="943.38" y="-302.3" font-family="Times,serif" font-size="14.00">install zigpkg</text>
</g>
<!-- N0&#45;&gt;N3 -->
<g id="edge3" class="edge">
<title>N0&#45;&gt;N3</title>
<path fill="none" stroke="black" d="M651.38,-369.51C705.83,-357.85 811.68,-335.19 879.86,-320.6"/>
<polygon fill="black" stroke="black" points="881.01,-323.93 890.05,-318.42 879.54,-317.09 881.01,-323.93"/>
</g>
<!-- N4 -->
<g id="node5" class="node">
<title>N4</title>
<ellipse fill="none" stroke="black" cx="515.38" cy="-306" rx="48.19" ry="18"/>
<text text-anchor="middle" x="515.38" y="-302.3" font-family="Times,serif" font-size="14.00">run test</text>
</g>
<!-- N0&#45;&gt;N4 -->
<g id="edge4" class="edge">
<title>N0&#45;&gt;N4</title>
<path fill="none" stroke="black" d="M595.45,-362.5C581.12,-352.56 561.88,-339.23 545.85,-328.12"/>
<polygon fill="black" stroke="black" points="547.54,-325.03 537.33,-322.21 543.56,-330.78 547.54,-325.03"/>
</g>
<!-- N5 -->
<g id="node6" class="node">
<title>N5</title>
<ellipse fill="none" stroke="black" cx="775.38" cy="-234" rx="191.17" ry="18"/>
<text text-anchor="middle" x="775.38" y="-230.3" font-family="Times,serif" font-size="14.00">zig build&#45;exe menuconfig Debug native</text>
</g>
<!-- N1&#45;&gt;N5 -->
<g id="edge5" class="edge">
<title>N1&#45;&gt;N5</title>
<path fill="none" stroke="black" d="M716.26,-288.05C726.06,-279.26 738.19,-268.38 748.9,-258.76"/>
<polygon fill="black" stroke="black" points="751.3,-261.32 756.4,-252.03 746.62,-256.11 751.3,-261.32"/>
</g>
<!-- N11 -->
<g id="node12" class="node">
<title>N11</title>
<ellipse fill="none" stroke="black" cx="185.38" cy="-234" rx="141.88" ry="18"/>
<text text-anchor="middle" x="185.38" y="-230.3" font-family="Times,serif" font-size="14.00">run pkg&#45;targz (depkg.tar.gz)</text>
</g>
<!-- N2&#45;&gt;N11 -->
<g id="edge11" class="edge">
<title>N2&#45;&gt;N11</title>
<path fill="none" stroke="black" d="M200.44,-287.7C198.21,-279.9 195.53,-270.51 193.05,-261.83"/>
<polygon fill="black" stroke="black" points="196.38,-260.76 190.27,-252.1 189.65,-262.68 196.38,-260.76"/>
</g>
<!-- N13 -->
<g id="node14" class="node">
<title>N13</title>
<ellipse fill="none" stroke="black" cx="1152.38" cy="-234" rx="168.17" ry="18"/>
<text text-anchor="middle" x="1152.38" y="-230.3" font-family="Times,serif" font-size="14.00">zig build&#45;exe zigpkg Debug native</text>
</g>
<!-- N3&#45;&gt;N13 -->
<g id="edge13" class="edge">
<title>N3&#45;&gt;N13</title>
<path fill="none" stroke="black" d="M984.92,-291.09C1016.15,-280.63 1059.34,-266.16 1094.04,-254.54"/>
<polygon fill="black" stroke="black" points="1095.21,-257.84 1103.58,-251.34 1092.99,-251.2 1095.21,-257.84"/>
</g>
<!-- N14 -->
<g id="node15" class="node">
<title>N14</title>
<ellipse fill="none" stroke="black" cx="455.38" cy="-234" rx="110.48" ry="18"/>
<text text-anchor="middle" x="455.38" y="-230.3" font-family="Times,serif" font-size="14.00">zig test Debug native</text>
</g>
<!-- N4&#45;&gt;N14 -->
<g id="edge14" class="edge">
<title>N4&#45;&gt;N14</title>
<path fill="none" stroke="black" d="M501.47,-288.76C494.11,-280.18 484.92,-269.46 476.69,-259.86"/>
<polygon fill="black" stroke="black" points="479.22,-257.44 470.06,-252.12 473.91,-261.99 479.22,-257.44"/>
</g>
<!-- N6 -->
<g id="node7" class="node">
<title>N6</title>
<ellipse fill="none" stroke="black" cx="902.38" cy="-162" rx="100.18" ry="18"/>
<text text-anchor="middle" x="902.38" y="-158.3" font-family="Times,serif" font-size="14.00">run gbp (gbp.bin.z)</text>
</g>
<!-- N5&#45;&gt;N6 -->
<g id="edge6" class="edge">
<title>N5&#45;&gt;N6</title>
<path fill="none" stroke="black" d="M806.12,-216.05C823.54,-206.46 845.47,-194.37 864.01,-184.15"/>
<polygon fill="black" stroke="black" points="865.73,-187.2 872.8,-179.31 862.35,-181.07 865.73,-187.2"/>
</g>
<!-- N7 -->
<g id="node8" class="node">
<title>N7</title>
<ellipse fill="none" stroke="black" cx="648.38" cy="-162" rx="103.98" ry="18"/>
<text text-anchor="middle" x="648.38" y="-158.3" font-family="Times,serif" font-size="14.00">run dwp (dwp.bin.z)</text>
</g>
<!-- N5&#45;&gt;N7 -->
<g id="edge7" class="edge">
<title>N5&#45;&gt;N7</title>
<path fill="none" stroke="black" d="M744.64,-216.05C727.23,-206.46 705.29,-194.37 686.76,-184.15"/>
<polygon fill="black" stroke="black" points="688.41,-181.07 677.97,-179.31 685.04,-187.2 688.41,-181.07"/>
</g>
<!-- N8 -->
<g id="node9" class="node">
<title>N8</title>
<ellipse fill="none" stroke="black" cx="940.38" cy="-90" rx="155.17" ry="18"/>
<text text-anchor="middle" x="940.38" y="-86.3" font-family="Times,serif" font-size="14.00">zig build&#45;exe gbp Debug native</text>
</g>
<!-- N6&#45;&gt;N8 -->
<g id="edge8" class="edge">
<title>N6&#45;&gt;N8</title>
<path fill="none" stroke="black" d="M911.58,-144.05C915.95,-136.01 921.27,-126.2 926.14,-117.23"/>
<polygon fill="black" stroke="black" points="929.31,-118.73 931,-108.28 923.16,-115.39 929.31,-118.73"/>
</g>
<!-- N9 -->
<g id="node10" class="node">
<title>N9</title>
<ellipse fill="none" stroke="black" cx="609.38" cy="-90" rx="157.07" ry="18"/>
<text text-anchor="middle" x="609.38" y="-86.3" font-family="Times,serif" font-size="14.00">zig build&#45;exe dwp Debug native</text>
</g>
<!-- N7&#45;&gt;N9 -->
<g id="edge9" class="edge">
<title>N7&#45;&gt;N9</title>
<path fill="none" stroke="black" d="M638.94,-144.05C634.46,-136.01 629,-126.2 623.99,-117.23"/>
<polygon fill="black" stroke="black" points="626.93,-115.31 619.01,-108.28 620.82,-118.71 626.93,-115.31"/>
</g>
<!-- N10 -->
<g id="node11" class="node">
<title>N10</title>
<ellipse fill="none" stroke="black" cx="609.38" cy="-18" rx="44.69" ry="18"/>
<text text-anchor="middle" x="609.38" y="-14.3" font-family="Times,serif" font-size="14.00">options</text>
</g>
<!-- N9&#45;&gt;N10 -->
<g id="edge10" class="edge">
<title>N9&#45;&gt;N10</title>
<path fill="none" stroke="black" d="M609.38,-71.7C609.38,-63.98 609.38,-54.71 609.38,-46.11"/>
<polygon fill="black" stroke="black" points="612.88,-46.1 609.38,-36.1 605.88,-46.1 612.88,-46.1"/>
</g>
<!-- N12 -->
<g id="node13" class="node">
<title>N12</title>
<ellipse fill="none" stroke="black" cx="185.38" cy="-162" rx="181.97" ry="18"/>
<text text-anchor="middle" x="185.38" y="-158.3" font-family="Times,serif" font-size="14.00">zig build&#45;exe pkg&#45;targz Debug native</text>
</g>
<!-- N11&#45;&gt;N12 -->
<g id="edge12" class="edge">
<title>N11&#45;&gt;N12</title>
<path fill="none" stroke="black" d="M185.38,-215.7C185.38,-207.98 185.38,-198.71 185.38,-190.11"/>
<polygon fill="black" stroke="black" points="188.88,-190.1 185.38,-180.1 181.88,-190.1 188.88,-190.1"/>
</g>
<!-- N15 -->
<g id="node16" class="node">
<title>N15</title>
<ellipse fill="none" stroke="black" cx="1151.38" cy="-522" rx="27" ry="18"/>
<text text-anchor="middle" x="1151.38" y="-518.3" font-family="Times,serif" font-size="14.00">dot</text>
</g>
<!-- N16 -->
<g id="node17" class="node">
<title>N16</title>
<ellipse fill="none" stroke="black" cx="1151.38" cy="-450" rx="99.38" ry="18"/>
<text text-anchor="middle" x="1151.38" y="-446.3" font-family="Times,serif" font-size="14.00">UpdateSourceFiles</text>
</g>
<!-- N15&#45;&gt;N16 -->
<g id="edge15" class="edge">
<title>N15&#45;&gt;N16</title>
<path fill="none" stroke="black" d="M1151.38,-503.7C1151.38,-495.98 1151.38,-486.71 1151.38,-478.11"/>
<polygon fill="black" stroke="black" points="1154.88,-478.1 1151.38,-468.1 1147.88,-478.1 1154.88,-478.1"/>
</g>
<!-- N17 -->
<g id="node18" class="node">
<title>N17</title>
<ellipse fill="none" stroke="black" cx="1152.38" cy="-306" rx="60.39" ry="18"/>
<text text-anchor="middle" x="1152.38" y="-302.3" font-family="Times,serif" font-size="14.00">run zigpkg</text>
</g>
<!-- N16&#45;&gt;N17 -->
<g id="edge16" class="edge">
<title>N16&#45;&gt;N17</title>
<path fill="none" stroke="black" d="M1131.47,-432C1121.92,-422.51 1111.46,-409.82 1106.38,-396 1100.87,-380.98 1100.78,-374.99 1106.38,-360 1110.43,-349.16 1117.8,-339.08 1125.47,-330.67"/>
<polygon fill="black" stroke="black" points="1128.04,-333.05 1132.52,-323.45 1123.03,-328.16 1128.04,-333.05"/>
</g>
<!-- N18 -->
<g id="node19" class="node">
<title>N18</title>
<ellipse fill="none" stroke="black" cx="1216.38" cy="-378" rx="100.98" ry="18"/>
<text text-anchor="middle" x="1216.38" y="-374.3" font-family="Times,serif" font-size="14.00">run dot (graph.svg)</text>
</g>
<!-- N16&#45;&gt;N18 -->
<g id="edge17" class="edge">
<title>N16&#45;&gt;N18</title>
<path fill="none" stroke="black" d="M1167.12,-432.05C1175.1,-423.46 1184.94,-412.86 1193.73,-403.4"/>
<polygon fill="black" stroke="black" points="1196.55,-405.5 1200.79,-395.79 1191.42,-400.74 1196.55,-405.5"/>
</g>
<!-- N17&#45;&gt;N13 -->
<g id="edge18" class="edge">
<title>N17&#45;&gt;N13</title>
<path fill="none" stroke="black" d="M1152.38,-287.7C1152.38,-279.98 1152.38,-270.71 1152.38,-262.11"/>
<polygon fill="black" stroke="black" points="1155.88,-262.1 1152.38,-252.1 1148.88,-262.1 1155.88,-262.1"/>
</g>
<!-- N18&#45;&gt;N17 -->
<g id="edge19" class="edge">
<title>N18&#45;&gt;N17</title>
<path fill="none" stroke="black" d="M1200.89,-360.05C1193.03,-351.46 1183.34,-340.86 1174.69,-331.4"/>
<polygon fill="black" stroke="black" points="1177.06,-328.81 1167.73,-323.79 1171.9,-333.53 1177.06,-328.81"/>
</g>
</g>
</svg>
