<?xml version="1.0" encoding="UTF-8" standalone="no"?>
<!DOCTYPE svg PUBLIC "-//W3C//DTD SVG 1.1//EN"
 "http://www.w3.org/Graphics/SVG/1.1/DTD/svg11.dtd">
<!-- Generated by graphviz version 2.42.4 (0)
 -->
<!-- Pages: 1 -->
<svg width="1983pt" height="606pt"
 viewBox="0.00 0.00 1983.00 606.00" xmlns="http://www.w3.org/2000/svg" xmlns:xlink="http://www.w3.org/1999/xlink">
<g id="graph0" class="graph" transform="scale(1 1) rotate(0) translate(4 602)">
<polygon fill="white" stroke="transparent" points="-4,4 -4,-602 1979,-602 1979,4 -4,4"/>
<g id="clust1" class="cluster">
<title>cluster_0</title>
<polygon fill="none" stroke="black" points="8,-152 8,-590 1300,-590 1300,-152 8,-152"/>
<text text-anchor="middle" x="654" y="-574.8" font-family="Times,serif" font-size="14.00">zig_pkg_tool</text>
</g>
<g id="clust2" class="cluster">
<title>cluster_1</title>
<polygon fill="none" stroke="black" points="1308,-8 1308,-227 1967,-227 1967,-8 1308,-8"/>
<text text-anchor="middle" x="1637.5" y="-211.8" font-family="Times,serif" font-size="14.00">zg&#45;0.13.4&#45;AAAAAGiZ7QLz4pvECFa_wG4O4TP4FLABHHbemH2KakWM</text>
</g>
<!-- N0 -->
<g id="node1" class="node">
<title>N0</title>
<g id="a_node1"><a xlink:title="zig_pkg_tool">
<ellipse fill="none" stroke="#000000" stroke-width="2" cx="568" cy="-397" rx="39.79" ry="18"/>
<text text-anchor="middle" x="568" y="-393.3" font-family="Times,serif" font-size="14.00">install</text>
</a>
</g>
</g>
<!-- N1 -->
<g id="node2" class="node">
<title>N1</title>
<g id="a_node2"><a xlink:title="zig_pkg_tool">
<ellipse fill="none" stroke="#006400" stroke-width="2" cx="732" cy="-325" rx="96.38" ry="18"/>
<text text-anchor="middle" x="732" y="-321.3" font-family="Times,serif" font-size="14.00">install menuconfig</text>
</a>
</g>
</g>
<!-- N0&#45;&gt;N1 -->
<g id="edge1" class="edge">
<title>N0&#45;&gt;N1</title>
<path fill="none" stroke="black" d="M595.82,-384.13C620.37,-373.65 656.65,-358.16 685.59,-345.81"/>
<polygon fill="black" stroke="black" points="687.27,-348.9 695.09,-341.75 684.52,-342.46 687.27,-348.9"/>
</g>
<!-- N2 -->
<g id="node3" class="node">
<title>N2</title>
<g id="a_node3"><a xlink:title="zig_pkg_tool">
<ellipse fill="none" stroke="#2f4f4f" stroke-width="2" cx="405" cy="-325" rx="205.26" ry="18"/>
<text text-anchor="middle" x="405" y="-321.3" font-family="Times,serif" font-size="14.00">install generated to deppkg/deppkg.tar.gz</text>
</a>
</g>
</g>
<!-- N0&#45;&gt;N2 -->
<g id="edge2" class="edge">
<title>N0&#45;&gt;N2</title>
<path fill="none" stroke="black" d="M539.98,-383.97C516.18,-373.75 481.49,-358.85 453.24,-346.72"/>
<polygon fill="black" stroke="black" points="454.5,-343.45 443.93,-342.72 451.74,-349.88 454.5,-343.45"/>
</g>
<!-- N3 -->
<g id="node4" class="node">
<title>N3</title>
<g id="a_node4"><a xlink:title="zig_pkg_tool">
<ellipse fill="none" stroke="#006400" stroke-width="2" cx="937" cy="-325" rx="73.39" ry="18"/>
<text text-anchor="middle" x="937" y="-321.3" font-family="Times,serif" font-size="14.00">install zigpkg</text>
</a>
</g>
</g>
<!-- N0&#45;&gt;N3 -->
<g id="edge3" class="edge">
<title>N0&#45;&gt;N3</title>
<path fill="none" stroke="black" d="M604.05,-389.16C665.75,-377.46 792.47,-353.42 870.55,-338.61"/>
<polygon fill="black" stroke="black" points="871.59,-341.97 880.76,-336.67 870.29,-335.09 871.59,-341.97"/>
</g>
<!-- N4 -->
<g id="node5" class="node">
<title>N4</title>
<g id="a_node5"><a xlink:title="zig_pkg_tool">
<ellipse fill="none" stroke="#bdb76b" stroke-width="2" cx="130" cy="-325" rx="48.19" ry="18"/>
<text text-anchor="middle" x="130" y="-321.3" font-family="Times,serif" font-size="14.00">run test</text>
</a>
</g>
</g>
<!-- N0&#45;&gt;N4 -->
<g id="edge4" class="edge">
<title>N0&#45;&gt;N4</title>
<path fill="none" stroke="black" d="M529.72,-392.31C461.28,-385.33 313.61,-368.59 191,-343 186.21,-342 181.24,-340.83 176.29,-339.59"/>
<polygon fill="black" stroke="black" points="176.82,-336.11 166.26,-336.95 175.04,-342.88 176.82,-336.11"/>
</g>
<!-- N5 -->
<g id="node6" class="node">
<title>N5</title>
<g id="a_node6"><a xlink:title="zig_pkg_tool">
<ellipse fill="none" stroke="#6495ed" stroke-width="2" cx="747" cy="-253" rx="191.17" ry="18"/>
<text text-anchor="middle" x="747" y="-249.3" font-family="Times,serif" font-size="14.00">zig build&#45;exe menuconfig Debug native</text>
</a>
</g>
</g>
<!-- N1&#45;&gt;N5 -->
<g id="edge5" class="edge">
<title>N1&#45;&gt;N5</title>
<path fill="none" stroke="black" d="M735.71,-306.7C737.36,-298.98 739.35,-289.71 741.19,-281.11"/>
<polygon fill="black" stroke="black" points="744.66,-281.62 743.33,-271.1 737.82,-280.15 744.66,-281.62"/>
</g>
<!-- N11 -->
<g id="node12" class="node">
<title>N11</title>
<g id="a_node12"><a xlink:title="zig_pkg_tool">
<ellipse fill="none" stroke="#bdb76b" stroke-width="2" cx="396" cy="-253" rx="141.88" ry="18"/>
<text text-anchor="middle" x="396" y="-249.3" font-family="Times,serif" font-size="14.00">run pkg&#45;targz (depkg.tar.gz)</text>
</a>
</g>
</g>
<!-- N2&#45;&gt;N11 -->
<g id="edge11" class="edge">
<title>N2&#45;&gt;N11</title>
<path fill="none" stroke="black" d="M402.78,-306.7C401.78,-298.98 400.59,-289.71 399.49,-281.11"/>
<polygon fill="black" stroke="black" points="402.95,-280.58 398.2,-271.1 396,-281.47 402.95,-280.58"/>
</g>
<!-- N13 -->
<g id="node14" class="node">
<title>N13</title>
<g id="a_node14"><a xlink:title="zig_pkg_tool">
<ellipse fill="none" stroke="#6495ed" stroke-width="2" cx="1124" cy="-253" rx="168.17" ry="18"/>
<text text-anchor="middle" x="1124" y="-249.3" font-family="Times,serif" font-size="14.00">zig build&#45;exe zigpkg Debug native</text>
</a>
</g>
</g>
<!-- N3&#45;&gt;N13 -->
<g id="edge13" class="edge">
<title>N3&#45;&gt;N13</title>
<path fill="none" stroke="black" d="M975.75,-309.5C1003.16,-299.23 1040.27,-285.34 1070.51,-274.02"/>
<polygon fill="black" stroke="black" points="1071.92,-277.23 1080.06,-270.45 1069.47,-270.68 1071.92,-277.23"/>
</g>
<!-- N14 -->
<g id="node15" class="node">
<title>N14</title>
<g id="a_node15"><a xlink:title="zig_pkg_tool">
<ellipse fill="none" stroke="#6495ed" stroke-width="2" cx="126" cy="-253" rx="110.48" ry="18"/>
<text text-anchor="middle" x="126" y="-249.3" font-family="Times,serif" font-size="14.00">zig test Debug native</text>
</a>
</g>
</g>
<!-- N4&#45;&gt;N14 -->
<g id="edge14" class="edge">
<title>N4&#45;&gt;N14</title>
<path fill="none" stroke="black" d="M129.01,-306.7C128.57,-298.98 128.04,-289.71 127.55,-281.11"/>
<polygon fill="black" stroke="black" points="131.04,-280.89 126.98,-271.1 124.05,-281.29 131.04,-280.89"/>
</g>
<!-- N6 -->
<g id="node7" class="node">
<title>N6</title>
<g id="a_node7"><a xlink:title="zg&#45;0.13.4&#45;AAAAAGiZ7QLz4pvECFa_wG4O4TP4FLABHHbemH2KakWM">
<ellipse fill="none" stroke="#bdb76b" stroke-width="2" cx="1804" cy="-178" rx="100.18" ry="18"/>
<text text-anchor="middle" x="1804" y="-174.3" font-family="Times,serif" font-size="14.00">run gbp (gbp.bin.z)</text>
</a>
</g>
</g>
<!-- N5&#45;&gt;N6 -->
<g id="edge6" class="edge">
<title>N5&#45;&gt;N6</title>
<path fill="none" stroke="black" d="M875.74,-239.68C899.42,-237.8 923.94,-236.12 947,-235 1088.84,-228.09 1444.92,-243.24 1586,-227 1639.58,-220.83 1699.32,-207.19 1742.7,-196.01"/>
<polygon fill="black" stroke="black" points="1743.73,-199.36 1752.53,-193.45 1741.97,-192.59 1743.73,-199.36"/>
</g>
<!-- N7 -->
<g id="node8" class="node">
<title>N7</title>
<g id="a_node8"><a xlink:title="zg&#45;0.13.4&#45;AAAAAGiZ7QLz4pvECFa_wG4O4TP4FLABHHbemH2KakWM">
<ellipse fill="none" stroke="#bdb76b" stroke-width="2" cx="1473" cy="-178" rx="103.98" ry="18"/>
<text text-anchor="middle" x="1473" y="-174.3" font-family="Times,serif" font-size="14.00">run dwp (dwp.bin.z)</text>
</a>
</g>
</g>
<!-- N5&#45;&gt;N7 -->
<g id="edge7" class="edge">
<title>N5&#45;&gt;N7</title>
<path fill="none" stroke="black" d="M876.83,-239.78C900.17,-237.92 924.29,-236.22 947,-235 1026.24,-230.75 1225.53,-238.82 1304,-227 1343.77,-221.01 1387.41,-208.45 1420.38,-197.69"/>
<polygon fill="black" stroke="black" points="1421.86,-200.88 1430.25,-194.41 1419.66,-194.24 1421.86,-200.88"/>
</g>
<!-- N8 -->
<g id="node9" class="node">
<title>N8</title>
<g id="a_node9"><a xlink:title="zg&#45;0.13.4&#45;AAAAAGiZ7QLz4pvECFa_wG4O4TP4FLABHHbemH2KakWM">
<ellipse fill="none" stroke="#6495ed" stroke-width="2" cx="1804" cy="-106" rx="155.17" ry="18"/>
<text text-anchor="middle" x="1804" y="-102.3" font-family="Times,serif" font-size="14.00">zig build&#45;exe gbp Debug native</text>
</a>
</g>
</g>
<!-- N6&#45;&gt;N8 -->
<g id="edge8" class="edge">
<title>N6&#45;&gt;N8</title>
<path fill="none" stroke="black" d="M1804,-159.7C1804,-151.98 1804,-142.71 1804,-134.11"/>
<polygon fill="black" stroke="black" points="1807.5,-134.1 1804,-124.1 1800.5,-134.1 1807.5,-134.1"/>
</g>
<!-- N9 -->
<g id="node10" class="node">
<title>N9</title>
<g id="a_node10"><a xlink:title="zg&#45;0.13.4&#45;AAAAAGiZ7QLz4pvECFa_wG4O4TP4FLABHHbemH2KakWM">
<ellipse fill="none" stroke="#6495ed" stroke-width="2" cx="1473" cy="-106" rx="157.07" ry="18"/>
<text text-anchor="middle" x="1473" y="-102.3" font-family="Times,serif" font-size="14.00">zig build&#45;exe dwp Debug native</text>
</a>
</g>
</g>
<!-- N7&#45;&gt;N9 -->
<g id="edge9" class="edge">
<title>N7&#45;&gt;N9</title>
<path fill="none" stroke="black" d="M1473,-159.7C1473,-151.98 1473,-142.71 1473,-134.11"/>
<polygon fill="black" stroke="black" points="1476.5,-134.1 1473,-124.1 1469.5,-134.1 1476.5,-134.1"/>
</g>
<!-- N10 -->
<g id="node11" class="node">
<title>N10</title>
<g id="a_node11"><a xlink:title="zg&#45;0.13.4&#45;AAAAAGiZ7QLz4pvECFa_wG4O4TP4FLABHHbemH2KakWM">
<ellipse fill="none" stroke="#00ffff" stroke-width="2" cx="1473" cy="-34" rx="44.69" ry="18"/>
<text text-anchor="middle" x="1473" y="-30.3" font-family="Times,serif" font-size="14.00">options</text>
</a>
</g>
</g>
<!-- N9&#45;&gt;N10 -->
<g id="edge10" class="edge">
<title>N9&#45;&gt;N10</title>
<path fill="none" stroke="black" d="M1473,-87.7C1473,-79.98 1473,-70.71 1473,-62.11"/>
<polygon fill="black" stroke="black" points="1476.5,-62.1 1473,-52.1 1469.5,-62.1 1476.5,-62.1"/>
</g>
<!-- N12 -->
<g id="node13" class="node">
<title>N12</title>
<g id="a_node13"><a xlink:title="zig_pkg_tool">
<ellipse fill="none" stroke="#6495ed" stroke-width="2" cx="396" cy="-178" rx="181.97" ry="18"/>
<text text-anchor="middle" x="396" y="-174.3" font-family="Times,serif" font-size="14.00">zig build&#45;exe pkg&#45;targz Debug native</text>
</a>
</g>
</g>
<!-- N11&#45;&gt;N12 -->
<g id="edge12" class="edge">
<title>N11&#45;&gt;N12</title>
<path fill="none" stroke="black" d="M396,-234.7C396,-226.25 396,-215.87 396,-206.37"/>
<polygon fill="black" stroke="black" points="399.5,-206.18 396,-196.18 392.5,-206.18 399.5,-206.18"/>
</g>
<!-- N15 -->
<g id="node16" class="node">
<title>N15</title>
<g id="a_node16"><a xlink:title="zig_pkg_tool">
<ellipse fill="none" stroke="#000000" stroke-width="2" cx="1124" cy="-541" rx="27" ry="18"/>
<text text-anchor="middle" x="1124" y="-537.3" font-family="Times,serif" font-size="14.00">dot</text>
</a>
</g>
</g>
<!-- N16 -->
<g id="node17" class="node">
<title>N16</title>
<g id="a_node17"><a xlink:title="zig_pkg_tool">
<ellipse fill="none" stroke="#ff00ff" stroke-width="2" cx="1124" cy="-469" rx="99.38" ry="18"/>
<text text-anchor="middle" x="1124" y="-465.3" font-family="Times,serif" font-size="14.00">UpdateSourceFiles</text>
</a>
</g>
</g>
<!-- N15&#45;&gt;N16 -->
<g id="edge15" class="edge">
<title>N15&#45;&gt;N16</title>
<path fill="none" stroke="black" d="M1124,-522.7C1124,-514.98 1124,-505.71 1124,-497.11"/>
<polygon fill="black" stroke="black" points="1127.5,-497.1 1124,-487.1 1120.5,-497.1 1127.5,-497.1"/>
</g>
<!-- N17 -->
<g id="node18" class="node">
<title>N17</title>
<g id="a_node18"><a xlink:title="zig_pkg_tool">
<ellipse fill="none" stroke="#bdb76b" stroke-width="2" cx="1124" cy="-325" rx="79.09" ry="18"/>
<text text-anchor="middle" x="1124" y="-321.3" font-family="Times,serif" font-size="14.00">dot generation</text>
</a>
</g>
</g>
<!-- N16&#45;&gt;N17 -->
<g id="edge16" class="edge">
<title>N16&#45;&gt;N17</title>
<path fill="none" stroke="black" d="M1135.89,-450.72C1142.01,-440.76 1148.84,-427.73 1152,-415 1155.85,-399.47 1155.85,-394.53 1152,-379 1149.71,-369.75 1145.47,-360.34 1140.98,-352.07"/>
<polygon fill="black" stroke="black" points="1143.93,-350.17 1135.89,-343.28 1137.87,-353.68 1143.93,-350.17"/>
</g>
<!-- N18 -->
<g id="node19" class="node">
<title>N18</title>
<g id="a_node19"><a xlink:title="zig_pkg_tool">
<ellipse fill="none" stroke="#bdb76b" stroke-width="2" cx="1086" cy="-397" rx="57.39" ry="18"/>
<text text-anchor="middle" x="1086" y="-393.3" font-family="Times,serif" font-size="14.00">dot to svg</text>
</a>
</g>
</g>
<!-- N16&#45;&gt;N18 -->
<g id="edge17" class="edge">
<title>N16&#45;&gt;N18</title>
<path fill="none" stroke="black" d="M1114.8,-451.05C1110.37,-442.89 1104.95,-432.91 1100.02,-423.82"/>
<polygon fill="black" stroke="black" points="1102.96,-421.91 1095.11,-414.79 1096.81,-425.25 1102.96,-421.91"/>
</g>
<!-- N17&#45;&gt;N13 -->
<g id="edge18" class="edge">
<title>N17&#45;&gt;N13</title>
<path fill="none" stroke="black" d="M1124,-306.7C1124,-298.98 1124,-289.71 1124,-281.11"/>
<polygon fill="black" stroke="black" points="1127.5,-281.1 1124,-271.1 1120.5,-281.1 1127.5,-281.1"/>
</g>
<!-- N18&#45;&gt;N17 -->
<g id="edge19" class="edge">
<title>N18&#45;&gt;N17</title>
<path fill="none" stroke="black" d="M1095.2,-379.05C1099.57,-371.01 1104.89,-361.2 1109.76,-352.23"/>
<polygon fill="black" stroke="black" points="1112.93,-353.73 1114.62,-343.28 1106.78,-350.39 1112.93,-353.73"/>
</g>
<!-- N19 -->
<g id="node20" class="node">
<title>N19</title>
<g id="a_node20"><a xlink:title="zig_pkg_tool">
<ellipse fill="none" stroke="#000000" stroke-width="2" cx="130" cy="-397" rx="28.7" ry="18"/>
<text text-anchor="middle" x="130" y="-393.3" font-family="Times,serif" font-size="14.00">test</text>
</a>
</g>
</g>
<!-- N19&#45;&gt;N4 -->
<g id="edge20" class="edge">
<title>N19&#45;&gt;N4</title>
<path fill="none" stroke="black" d="M130,-378.7C130,-370.98 130,-361.71 130,-353.11"/>
<polygon fill="black" stroke="black" points="133.5,-353.1 130,-343.1 126.5,-353.1 133.5,-353.1"/>
</g>
<!-- N20 -->
<g id="node21" class="node">
<title>N20</title>
<g id="a_node21"><a xlink:title="zig_pkg_tool">
<ellipse fill="none" stroke="#000000" stroke-width="2" cx="550" cy="-541" rx="27" ry="18"/>
<text text-anchor="middle" x="550" y="-537.3" font-family="Times,serif" font-size="14.00">fmt</text>
</a>
</g>
</g>
<!-- N21 -->
<g id="node22" class="node">
<title>N21</title>
<g id="a_node22"><a xlink:title="zig_pkg_tool">
<ellipse fill="none" stroke="#ffff00" stroke-width="2" cx="550" cy="-469" rx="43.59" ry="18"/>
<text text-anchor="middle" x="550" y="-465.3" font-family="Times,serif" font-size="14.00">zig fmt</text>
</a>
</g>
</g>
<!-- N20&#45;&gt;N21 -->
<g id="edge21" class="edge">
<title>N20&#45;&gt;N21</title>
<path fill="none" stroke="black" d="M550,-522.7C550,-514.98 550,-505.71 550,-497.11"/>
<polygon fill="black" stroke="black" points="553.5,-497.1 550,-487.1 546.5,-497.1 553.5,-497.1"/>
</g>
</g>
</svg>
