<?xml version="1.0" encoding="UTF-8" standalone="no"?>
<!DOCTYPE svg PUBLIC "-//W3C//DTD SVG 1.1//EN"
 "http://www.w3.org/Graphics/SVG/1.1/DTD/svg11.dtd">
<!-- Generated by graphviz version 2.43.0 (0)
 -->
<!-- Title: %3 Pages: 1 -->
<svg width="1449pt" height="459pt"
 viewBox="0.00 0.00 1449.00 459.00" xmlns="http://www.w3.org/2000/svg" xmlns:xlink="http://www.w3.org/1999/xlink">
<g id="graph0" class="graph" transform="scale(1 1) rotate(0) translate(4 455)">
<title>%3</title>
<polygon fill="white" stroke="transparent" points="-4,4 -4,-455 1445,-455 1445,4 -4,4"/>
<g id="clust1" class="cluster">
<title>cluster_0</title>
<polygon fill="none" stroke="black" points="8,-8 8,-443 1433,-443 1433,-8 8,-8"/>
<text text-anchor="middle" x="720.5" y="-427.8" font-family="Times,serif" font-size="14.00">zig_pkg_tool</text>
</g>
<!-- N0 -->
<g id="node1" class="node">
<title>N0</title>
<ellipse fill="#ffffff" stroke="black" cx="846" cy="-250" rx="39.79" ry="18"/>
<text text-anchor="middle" x="846" y="-246.3" font-family="Times,serif" font-size="14.00">install</text>
</g>
<!-- N1 -->
<g id="node2" class="node">
<title>N1</title>
<ellipse fill="#8f6f6f" stroke="black" cx="1190" cy="-178" rx="234.76" ry="18"/>
<text text-anchor="middle" x="1190" y="-174.3" font-family="Times,serif" font-size="14.00">install generated to share/pkgtool&#45;deppkg.tar.gz</text>
</g>
<!-- N0&#45;&gt;N1 -->
<g id="edge1" class="edge">
<title>N0&#45;&gt;N1</title>
<path fill="none" stroke="black" d="M875.21,-237.8C881.36,-235.69 887.85,-233.63 894,-232 951.84,-216.69 1017.23,-204.46 1071.8,-195.63"/>
<polygon fill="black" stroke="black" points="1072.54,-199.06 1081.86,-194.02 1071.44,-192.14 1072.54,-199.06"/>
</g>
<!-- N5 -->
<g id="node3" class="node">
<title>N5</title>
<ellipse fill="#309430" stroke="black" cx="749" cy="-178" rx="73.39" ry="18"/>
<text text-anchor="middle" x="749" y="-174.3" font-family="Times,serif" font-size="14.00">install zigpkg</text>
</g>
<!-- N0&#45;&gt;N5 -->
<g id="edge2" class="edge">
<title>N0&#45;&gt;N5</title>
<path fill="none" stroke="black" d="M825.43,-234.15C812.23,-224.63 794.83,-212.08 779.98,-201.36"/>
<polygon fill="black" stroke="black" points="781.73,-198.3 771.57,-195.29 777.63,-203.98 781.73,-198.3"/>
</g>
<!-- N7 -->
<g id="node4" class="node">
<title>N7</title>
<ellipse fill="#bdb76b" stroke="black" cx="889" cy="-178" rx="48.19" ry="18"/>
<text text-anchor="middle" x="889" y="-174.3" font-family="Times,serif" font-size="14.00">run test</text>
</g>
<!-- N0&#45;&gt;N7 -->
<g id="edge3" class="edge">
<title>N0&#45;&gt;N7</title>
<path fill="none" stroke="black" d="M856.19,-232.41C861.31,-224.08 867.62,-213.8 873.34,-204.49"/>
<polygon fill="black" stroke="black" points="876.33,-206.31 878.58,-195.96 870.37,-202.65 876.33,-206.31"/>
</g>
<!-- N2 -->
<g id="node5" class="node">
<title>N2</title>
<ellipse fill="#bdb76b" stroke="black" cx="1190" cy="-106" rx="146.77" ry="18"/>
<text text-anchor="middle" x="1190" y="-102.3" font-family="Times,serif" font-size="14.00">run exe zigpkg (depkg.tar.gz)</text>
</g>
<!-- N1&#45;&gt;N2 -->
<g id="edge4" class="edge">
<title>N1&#45;&gt;N2</title>
<path fill="none" stroke="black" d="M1190,-159.7C1190,-151.98 1190,-142.71 1190,-134.11"/>
<polygon fill="black" stroke="black" points="1193.5,-134.1 1190,-124.1 1186.5,-134.1 1193.5,-134.1"/>
</g>
<!-- N6 -->
<g id="node8" class="node">
<title>N6</title>
<ellipse fill="#6495ed" stroke="black" cx="490" cy="-106" rx="164.37" ry="18"/>
<text text-anchor="middle" x="490" y="-102.3" font-family="Times,serif" font-size="14.00">compile exe zigpkg Debug native</text>
</g>
<!-- N5&#45;&gt;N6 -->
<g id="edge7" class="edge">
<title>N5&#45;&gt;N6</title>
<path fill="none" stroke="black" d="M701.5,-164.16C661.36,-153.31 603.37,-137.64 558.26,-125.45"/>
<polygon fill="black" stroke="black" points="559.12,-122.06 548.55,-122.83 557.29,-128.81 559.12,-122.06"/>
</g>
<!-- N8 -->
<g id="node9" class="node">
<title>N8</title>
<ellipse fill="#6495ed" stroke="black" cx="889" cy="-106" rx="132.68" ry="18"/>
<text text-anchor="middle" x="889" y="-102.3" font-family="Times,serif" font-size="14.00">compile test Debug native</text>
</g>
<!-- N7&#45;&gt;N8 -->
<g id="edge8" class="edge">
<title>N7&#45;&gt;N8</title>
<path fill="none" stroke="black" d="M889,-159.7C889,-151.98 889,-142.71 889,-134.11"/>
<polygon fill="black" stroke="black" points="892.5,-134.1 889,-124.1 885.5,-134.1 892.5,-134.1"/>
</g>
<!-- N3 -->
<g id="node6" class="node">
<title>N3</title>
<ellipse fill="#6495ed" stroke="black" cx="935" cy="-34" rx="164.37" ry="18"/>
<text text-anchor="middle" x="935" y="-30.3" font-family="Times,serif" font-size="14.00">compile exe zigpkg Debug native</text>
</g>
<!-- N2&#45;&gt;N3 -->
<g id="edge5" class="edge">
<title>N2&#45;&gt;N3</title>
<path fill="none" stroke="black" d="M1133.09,-89.38C1094.58,-78.81 1043.52,-64.79 1002.89,-53.64"/>
<polygon fill="black" stroke="black" points="1003.63,-50.21 993.06,-50.94 1001.78,-56.96 1003.63,-50.21"/>
</g>
<!-- N4 -->
<g id="node7" class="node">
<title>N4</title>
<ellipse fill="#3333aa" stroke="black" cx="1244" cy="-34" rx="126.18" ry="18"/>
<text text-anchor="middle" x="1244" y="-30.3" font-family="Times,serif" font-size="14.00">WriteFile buildgraph.zon</text>
</g>
<!-- N2&#45;&gt;N4 -->
<g id="edge6" class="edge">
<title>N2&#45;&gt;N4</title>
<path fill="none" stroke="black" d="M1203.07,-88.05C1209.48,-79.75 1217.32,-69.58 1224.42,-60.38"/>
<polygon fill="black" stroke="black" points="1227.34,-62.33 1230.67,-52.28 1221.79,-58.06 1227.34,-62.33"/>
</g>
<!-- N9 -->
<g id="node10" class="node">
<title>N9</title>
<ellipse fill="#ffffff" stroke="black" cx="1062" cy="-394" rx="51.19" ry="18"/>
<text text-anchor="middle" x="1062" y="-390.3" font-family="Times,serif" font-size="14.00">uninstall</text>
</g>
<!-- N10 -->
<g id="node11" class="node">
<title>N10</title>
<ellipse fill="#ffffff" stroke="black" cx="1190" cy="-250" rx="44.69" ry="18"/>
<text text-anchor="middle" x="1190" y="-246.3" font-family="Times,serif" font-size="14.00">deppkg</text>
</g>
<!-- N10&#45;&gt;N1 -->
<g id="edge9" class="edge">
<title>N10&#45;&gt;N1</title>
<path fill="none" stroke="black" d="M1190,-231.7C1190,-223.98 1190,-214.71 1190,-206.11"/>
<polygon fill="black" stroke="black" points="1193.5,-206.1 1190,-196.1 1186.5,-206.1 1193.5,-206.1"/>
</g>
<!-- N11 -->
<g id="node12" class="node">
<title>N11</title>
<ellipse fill="#ffffff" stroke="black" cx="407" cy="-250" rx="27" ry="18"/>
<text text-anchor="middle" x="407" y="-246.3" font-family="Times,serif" font-size="14.00">exe</text>
</g>
<!-- N12 -->
<g id="node13" class="node">
<title>N12</title>
<ellipse fill="#309430" stroke="black" cx="407" cy="-178" rx="73.39" ry="18"/>
<text text-anchor="middle" x="407" y="-174.3" font-family="Times,serif" font-size="14.00">install zigpkg</text>
</g>
<!-- N11&#45;&gt;N12 -->
<g id="edge10" class="edge">
<title>N11&#45;&gt;N12</title>
<path fill="none" stroke="black" d="M407,-231.7C407,-223.98 407,-214.71 407,-206.11"/>
<polygon fill="black" stroke="black" points="410.5,-206.1 407,-196.1 403.5,-206.1 410.5,-206.1"/>
</g>
<!-- N12&#45;&gt;N6 -->
<g id="edge11" class="edge">
<title>N12&#45;&gt;N6</title>
<path fill="none" stroke="black" d="M426.67,-160.41C437.26,-151.48 450.51,-140.3 462.15,-130.49"/>
<polygon fill="black" stroke="black" points="464.51,-133.08 469.89,-123.96 459.99,-127.73 464.51,-133.08"/>
</g>
<!-- N13 -->
<g id="node14" class="node">
<title>N13</title>
<ellipse fill="#ffffff" stroke="black" cx="236" cy="-250" rx="41.69" ry="18"/>
<text text-anchor="middle" x="236" y="-246.3" font-family="Times,serif" font-size="14.00">zigpkg</text>
</g>
<!-- N14 -->
<g id="node15" class="node">
<title>N14</title>
<ellipse fill="#bdb76b" stroke="black" cx="236" cy="-178" rx="79.09" ry="18"/>
<text text-anchor="middle" x="236" y="-174.3" font-family="Times,serif" font-size="14.00">run exe zigpkg</text>
</g>
<!-- N13&#45;&gt;N14 -->
<g id="edge12" class="edge">
<title>N13&#45;&gt;N14</title>
<path fill="none" stroke="black" d="M236,-231.7C236,-223.98 236,-214.71 236,-206.11"/>
<polygon fill="black" stroke="black" points="239.5,-206.1 236,-196.1 232.5,-206.1 239.5,-206.1"/>
</g>
<!-- N14&#45;&gt;N6 -->
<g id="edge13" class="edge">
<title>N14&#45;&gt;N6</title>
<path fill="none" stroke="black" d="M284.37,-163.67C323.45,-152.9 378.89,-137.62 422.37,-125.64"/>
<polygon fill="black" stroke="black" points="423.3,-129.01 432.01,-122.98 421.44,-122.26 423.3,-129.01"/>
</g>
<!-- N15 -->
<g id="node16" class="node">
<title>N15</title>
<ellipse fill="#ffffff" stroke="black" cx="932" cy="-250" rx="28.7" ry="18"/>
<text text-anchor="middle" x="932" y="-246.3" font-family="Times,serif" font-size="14.00">test</text>
</g>
<!-- N15&#45;&gt;N7 -->
<g id="edge14" class="edge">
<title>N15&#45;&gt;N7</title>
<path fill="none" stroke="black" d="M922.03,-232.76C916.84,-224.32 910.38,-213.8 904.55,-204.31"/>
<polygon fill="black" stroke="black" points="907.43,-202.32 899.22,-195.63 901.47,-205.99 907.43,-202.32"/>
</g>
<!-- N16 -->
<g id="node17" class="node">
<title>N16</title>
<ellipse fill="#ffffff" stroke="black" cx="654" cy="-394" rx="27" ry="18"/>
<text text-anchor="middle" x="654" y="-390.3" font-family="Times,serif" font-size="14.00">dot</text>
</g>
<!-- N17 -->
<g id="node18" class="node">
<title>N17</title>
<ellipse fill="#ff44ff" stroke="black" cx="654" cy="-322" rx="99.38" ry="18"/>
<text text-anchor="middle" x="654" y="-318.3" font-family="Times,serif" font-size="14.00">UpdateSourceFiles</text>
</g>
<!-- N16&#45;&gt;N17 -->
<g id="edge15" class="edge">
<title>N16&#45;&gt;N17</title>
<path fill="none" stroke="black" d="M654,-375.7C654,-367.98 654,-358.71 654,-350.11"/>
<polygon fill="black" stroke="black" points="657.5,-350.1 654,-340.1 650.5,-350.1 657.5,-350.1"/>
</g>
<!-- N18 -->
<g id="node19" class="node">
<title>N18</title>
<ellipse fill="#bdb76b" stroke="black" cx="578" cy="-178" rx="79.09" ry="18"/>
<text text-anchor="middle" x="578" y="-174.3" font-family="Times,serif" font-size="14.00">dot generation</text>
</g>
<!-- N17&#45;&gt;N18 -->
<g id="edge16" class="edge">
<title>N17&#45;&gt;N18</title>
<path fill="none" stroke="black" d="M624.43,-304.65C611.04,-295.64 596.36,-283.19 588,-268 577.66,-249.21 575.56,-224.83 575.82,-206.34"/>
<polygon fill="black" stroke="black" points="579.32,-206.35 576.2,-196.22 572.33,-206.08 579.32,-206.35"/>
</g>
<!-- N19 -->
<g id="node20" class="node">
<title>N19</title>
<ellipse fill="#bdb76b" stroke="black" cx="654" cy="-250" rx="57.39" ry="18"/>
<text text-anchor="middle" x="654" y="-246.3" font-family="Times,serif" font-size="14.00">dot to svg</text>
</g>
<!-- N17&#45;&gt;N19 -->
<g id="edge17" class="edge">
<title>N17&#45;&gt;N19</title>
<path fill="none" stroke="black" d="M654,-303.7C654,-295.98 654,-286.71 654,-278.11"/>
<polygon fill="black" stroke="black" points="657.5,-278.1 654,-268.1 650.5,-278.1 657.5,-278.1"/>
</g>
<!-- N18&#45;&gt;N6 -->
<g id="edge18" class="edge">
<title>N18&#45;&gt;N6</title>
<path fill="none" stroke="black" d="M557.15,-160.41C545.8,-151.39 531.6,-140.09 519.17,-130.21"/>
<polygon fill="black" stroke="black" points="521.32,-127.44 511.32,-123.96 516.96,-132.92 521.32,-127.44"/>
</g>
<!-- N19&#45;&gt;N18 -->
<g id="edge19" class="edge">
<title>N19&#45;&gt;N18</title>
<path fill="none" stroke="black" d="M636.37,-232.76C626.63,-223.79 614.36,-212.49 603.58,-202.56"/>
<polygon fill="black" stroke="black" points="605.79,-199.83 596.06,-195.63 601.04,-204.98 605.79,-199.83"/>
</g>
<!-- N20 -->
<g id="node21" class="node">
<title>N20</title>
<ellipse fill="#ffffff" stroke="black" cx="493" cy="-394" rx="27" ry="18"/>
<text text-anchor="middle" x="493" y="-390.3" font-family="Times,serif" font-size="14.00">fmt</text>
</g>
<!-- N21 -->
<g id="node22" class="node">
<title>N21</title>
<ellipse fill="#ffff00" stroke="black" cx="493" cy="-322" rx="43.59" ry="18"/>
<text text-anchor="middle" x="493" y="-318.3" font-family="Times,serif" font-size="14.00">zig fmt</text>
</g>
<!-- N20&#45;&gt;N21 -->
<g id="edge20" class="edge">
<title>N20&#45;&gt;N21</title>
<path fill="none" stroke="black" d="M493,-375.7C493,-367.98 493,-358.71 493,-350.11"/>
<polygon fill="black" stroke="black" points="496.5,-350.1 493,-340.1 489.5,-350.1 496.5,-350.1"/>
</g>
<!-- N22 -->
<g id="node23" class="node">
<title>N22</title>
<ellipse fill="#ffffff" stroke="black" cx="223" cy="-394" rx="90.98" ry="18"/>
<text text-anchor="middle" x="223" y="-390.3" font-family="Times,serif" font-size="14.00">update&#45;build&#45;tree</text>
</g>
<!-- N23 -->
<g id="node24" class="node">
<title>N23</title>
<ellipse fill="#ff44ff" stroke="black" cx="115" cy="-322" rx="99.38" ry="18"/>
<text text-anchor="middle" x="115" y="-318.3" font-family="Times,serif" font-size="14.00">UpdateSourceFiles</text>
</g>
<!-- N22&#45;&gt;N23 -->
<g id="edge21" class="edge">
<title>N22&#45;&gt;N23</title>
<path fill="none" stroke="black" d="M197.68,-376.59C183.16,-367.18 164.74,-355.24 148.98,-345.02"/>
<polygon fill="black" stroke="black" points="150.83,-342.05 140.54,-339.55 147.02,-347.93 150.83,-342.05"/>
</g>
<!-- N24 -->
<g id="node25" class="node">
<title>N24</title>
<ellipse fill="#ff44ff" stroke="black" cx="332" cy="-322" rx="99.38" ry="18"/>
<text text-anchor="middle" x="332" y="-318.3" font-family="Times,serif" font-size="14.00">UpdateSourceFiles</text>
</g>
<!-- N22&#45;&gt;N24 -->
<g id="edge22" class="edge">
<title>N22&#45;&gt;N24</title>
<path fill="none" stroke="black" d="M248.56,-376.59C263.21,-367.18 281.8,-355.24 297.71,-345.02"/>
<polygon fill="black" stroke="black" points="299.7,-347.9 306.23,-339.55 295.92,-342.01 299.7,-347.9"/>
</g>
</g>
</svg>
