<?xml version="1.0" encoding="UTF-8" standalone="no"?>
<!DOCTYPE svg PUBLIC "-//W3C//DTD SVG 1.1//EN"
 "http://www.w3.org/Graphics/SVG/1.1/DTD/svg11.dtd">
<!-- Generated by graphviz version 2.42.4 (0)
 -->
<!-- Pages: 1 -->
<svg width="2255pt" height="462pt"
 viewBox="0.00 0.00 2255.00 462.00" xmlns="http://www.w3.org/2000/svg" xmlns:xlink="http://www.w3.org/1999/xlink">
<g id="graph0" class="graph" transform="scale(1 1) rotate(0) translate(4 458)">
<polygon fill="white" stroke="transparent" points="-4,4 -4,-458 2251,-458 2251,4 -4,4"/>
<g id="clust1" class="cluster">
<title>cluster_0</title>
<polygon fill="none" stroke="black" points="8,-8 8,-446 1572,-446 1572,-8 8,-8"/>
<text text-anchor="middle" x="790" y="-430.8" font-family="Times,serif" font-size="14.00">zig_pkg_tool</text>
</g>
<g id="clust4" class="cluster">
<title>cluster_3</title>
<polygon fill="none" stroke="black" points="1580,-8 1580,-227 2239,-227 2239,-8 1580,-8"/>
<text text-anchor="middle" x="1909.5" y="-211.8" font-family="Times,serif" font-size="14.00">zg&#45;0.13.4&#45;AAAAAGiZ7QLz4pvECFa_wG4O4TP4FLABHHbemH2KakWM</text>
</g>
<!-- N0 -->
<g id="node1" class="node">
<title>N0</title>
<ellipse fill="#ffffff" stroke="black" cx="942" cy="-253" rx="39.79" ry="18"/>
<text text-anchor="middle" x="942" y="-249.3" font-family="Times,serif" font-size="14.00">install</text>
</g>
<!-- N1 -->
<g id="node2" class="node">
<title>N1</title>
<ellipse fill="#8f6f6f" stroke="black" cx="1299" cy="-178" rx="205.26" ry="18"/>
<text text-anchor="middle" x="1299" y="-174.3" font-family="Times,serif" font-size="14.00">install generated to deppkg/deppkg.tar.gz</text>
</g>
<!-- N0&#45;&gt;N1 -->
<g id="edge1" class="edge">
<title>N0&#45;&gt;N1</title>
<path fill="none" stroke="black" d="M970.85,-240.44C977.08,-238.33 983.69,-236.36 990,-235 1031.42,-226.08 1043.12,-233.43 1085,-227 1132.91,-219.65 1186.08,-207.74 1227.44,-197.62"/>
<polygon fill="black" stroke="black" points="1228.28,-201.02 1237.15,-195.23 1226.61,-194.22 1228.28,-201.02"/>
</g>
<!-- N5 -->
<g id="node3" class="node">
<title>N5</title>
<ellipse fill="#309430" stroke="black" cx="888" cy="-178" rx="73.39" ry="18"/>
<text text-anchor="middle" x="888" y="-174.3" font-family="Times,serif" font-size="14.00">install zigpkg</text>
</g>
<!-- N0&#45;&gt;N5 -->
<g id="edge2" class="edge">
<title>N0&#45;&gt;N5</title>
<path fill="none" stroke="black" d="M930.02,-235.8C923.1,-226.45 914.26,-214.5 906.48,-203.98"/>
<polygon fill="black" stroke="black" points="909.27,-201.87 900.51,-195.92 903.65,-206.04 909.27,-201.87"/>
</g>
<!-- N7 -->
<g id="node4" class="node">
<title>N7</title>
<ellipse fill="#bdb76b" stroke="black" cx="1028" cy="-178" rx="48.19" ry="18"/>
<text text-anchor="middle" x="1028" y="-174.3" font-family="Times,serif" font-size="14.00">run test</text>
</g>
<!-- N0&#45;&gt;N7 -->
<g id="edge3" class="edge">
<title>N0&#45;&gt;N7</title>
<path fill="none" stroke="black" d="M959.82,-236.87C971.91,-226.61 988.1,-212.87 1001.67,-201.35"/>
<polygon fill="black" stroke="black" points="1003.95,-204 1009.31,-194.86 999.42,-198.67 1003.95,-204"/>
</g>
<!-- N2 -->
<g id="node5" class="node">
<title>N2</title>
<ellipse fill="#bdb76b" stroke="black" cx="1299" cy="-106" rx="128.08" ry="18"/>
<text text-anchor="middle" x="1299" y="-102.3" font-family="Times,serif" font-size="14.00">run zigpkg (depkg.tar.gz)</text>
</g>
<!-- N1&#45;&gt;N2 -->
<g id="edge4" class="edge">
<title>N1&#45;&gt;N2</title>
<path fill="none" stroke="black" d="M1299,-159.7C1299,-151.98 1299,-142.71 1299,-134.11"/>
<polygon fill="black" stroke="black" points="1302.5,-134.1 1299,-124.1 1295.5,-134.1 1302.5,-134.1"/>
</g>
<!-- N6 -->
<g id="node8" class="node">
<title>N6</title>
<ellipse fill="#6495ed" stroke="black" cx="733" cy="-106" rx="168.17" ry="18"/>
<text text-anchor="middle" x="733" y="-102.3" font-family="Times,serif" font-size="14.00">zig build&#45;exe zigpkg Debug native</text>
</g>
<!-- N5&#45;&gt;N6 -->
<g id="edge7" class="edge">
<title>N5&#45;&gt;N6</title>
<path fill="none" stroke="black" d="M854.37,-161.81C832.36,-151.87 803.31,-138.75 779.15,-127.84"/>
<polygon fill="black" stroke="black" points="780.37,-124.55 769.82,-123.63 777.49,-130.93 780.37,-124.55"/>
</g>
<!-- N8 -->
<g id="node9" class="node">
<title>N8</title>
<ellipse fill="#6495ed" stroke="black" cx="1030" cy="-106" rx="110.48" ry="18"/>
<text text-anchor="middle" x="1030" y="-102.3" font-family="Times,serif" font-size="14.00">zig test Debug native</text>
</g>
<!-- N7&#45;&gt;N8 -->
<g id="edge8" class="edge">
<title>N7&#45;&gt;N8</title>
<path fill="none" stroke="black" d="M1028.49,-159.7C1028.71,-151.98 1028.98,-142.71 1029.23,-134.11"/>
<polygon fill="black" stroke="black" points="1032.72,-134.2 1029.51,-124.1 1025.73,-134 1032.72,-134.2"/>
</g>
<!-- N3 -->
<g id="node6" class="node">
<title>N3</title>
<ellipse fill="#6495ed" stroke="black" cx="1030" cy="-34" rx="194.17" ry="18"/>
<text text-anchor="middle" x="1030" y="-30.3" font-family="Times,serif" font-size="14.00">zig build&#45;exe zigpkg ReleaseFast native</text>
</g>
<!-- N2&#45;&gt;N3 -->
<g id="edge5" class="edge">
<title>N2&#45;&gt;N3</title>
<path fill="none" stroke="black" d="M1240.96,-89.9C1200.27,-79.31 1145.59,-65.08 1102.1,-53.76"/>
<polygon fill="black" stroke="black" points="1102.71,-50.3 1092.15,-51.17 1100.95,-57.08 1102.71,-50.3"/>
</g>
<!-- N4 -->
<g id="node7" class="node">
<title>N4</title>
<ellipse fill="#3333aa" stroke="black" cx="1368" cy="-34" rx="126.18" ry="18"/>
<text text-anchor="middle" x="1368" y="-30.3" font-family="Times,serif" font-size="14.00">WriteFile buildgraph.zon</text>
</g>
<!-- N2&#45;&gt;N4 -->
<g id="edge6" class="edge">
<title>N2&#45;&gt;N4</title>
<path fill="none" stroke="black" d="M1315.7,-88.05C1324.14,-79.5 1334.53,-68.96 1343.82,-59.54"/>
<polygon fill="black" stroke="black" points="1346.44,-61.85 1350.97,-52.28 1341.46,-56.94 1346.44,-61.85"/>
</g>
<!-- N9 -->
<g id="node10" class="node">
<title>N9</title>
<ellipse fill="#ffffff" stroke="black" cx="1491" cy="-397" rx="51.19" ry="18"/>
<text text-anchor="middle" x="1491" y="-393.3" font-family="Times,serif" font-size="14.00">uninstall</text>
</g>
<!-- N10 -->
<g id="node11" class="node">
<title>N10</title>
<ellipse fill="#ffffff" stroke="black" cx="1384" cy="-397" rx="27" ry="18"/>
<text text-anchor="middle" x="1384" y="-393.3" font-family="Times,serif" font-size="14.00">exe</text>
</g>
<!-- N11 -->
<g id="node12" class="node">
<title>N11</title>
<ellipse fill="#309430" stroke="black" cx="1384" cy="-325" rx="96.38" ry="18"/>
<text text-anchor="middle" x="1384" y="-321.3" font-family="Times,serif" font-size="14.00">install menuconfig</text>
</g>
<!-- N10&#45;&gt;N11 -->
<g id="edge9" class="edge">
<title>N10&#45;&gt;N11</title>
<path fill="none" stroke="black" d="M1384,-378.7C1384,-370.98 1384,-361.71 1384,-353.11"/>
<polygon fill="black" stroke="black" points="1387.5,-353.1 1384,-343.1 1380.5,-353.1 1387.5,-353.1"/>
</g>
<!-- N12 -->
<g id="node13" class="node">
<title>N12</title>
<ellipse fill="#6495ed" stroke="black" cx="1373" cy="-253" rx="191.17" ry="18"/>
<text text-anchor="middle" x="1373" y="-249.3" font-family="Times,serif" font-size="14.00">zig build&#45;exe menuconfig Debug native</text>
</g>
<!-- N11&#45;&gt;N12 -->
<g id="edge10" class="edge">
<title>N11&#45;&gt;N12</title>
<path fill="none" stroke="black" d="M1381.28,-306.7C1380.07,-298.98 1378.61,-289.71 1377.26,-281.11"/>
<polygon fill="black" stroke="black" points="1380.7,-280.44 1375.69,-271.1 1373.78,-281.53 1380.7,-280.44"/>
</g>
<!-- N13 -->
<g id="node14" class="node">
<title>N13</title>
<ellipse fill="#bdb76b" stroke="black" cx="2076" cy="-178" rx="100.18" ry="18"/>
<text text-anchor="middle" x="2076" y="-174.3" font-family="Times,serif" font-size="14.00">run gbp (gbp.bin.z)</text>
</g>
<!-- N12&#45;&gt;N13 -->
<g id="edge11" class="edge">
<title>N12&#45;&gt;N13</title>
<path fill="none" stroke="black" d="M1560.8,-249.54C1651,-246.52 1760.45,-240.16 1858,-227 1910.73,-219.89 1969.61,-206.59 2012.87,-195.8"/>
<polygon fill="black" stroke="black" points="2013.85,-199.16 2022.69,-193.33 2012.14,-192.38 2013.85,-199.16"/>
</g>
<!-- N15 -->
<g id="node15" class="node">
<title>N15</title>
<ellipse fill="#bdb76b" stroke="black" cx="1745" cy="-178" rx="103.98" ry="18"/>
<text text-anchor="middle" x="1745" y="-174.3" font-family="Times,serif" font-size="14.00">run dwp (dwp.bin.z)</text>
</g>
<!-- N12&#45;&gt;N15 -->
<g id="edge12" class="edge">
<title>N12&#45;&gt;N15</title>
<path fill="none" stroke="black" d="M1499.64,-239.46C1525.05,-236.09 1551.46,-231.96 1576,-227 1614.2,-219.27 1656.37,-207.3 1689.03,-197.24"/>
<polygon fill="black" stroke="black" points="1690.34,-200.5 1698.85,-194.19 1688.26,-193.82 1690.34,-200.5"/>
</g>
<!-- N14 -->
<g id="node16" class="node">
<title>N14</title>
<ellipse fill="#6495ed" stroke="black" cx="2076" cy="-106" rx="155.17" ry="18"/>
<text text-anchor="middle" x="2076" y="-102.3" font-family="Times,serif" font-size="14.00">zig build&#45;exe gbp Debug native</text>
</g>
<!-- N13&#45;&gt;N14 -->
<g id="edge13" class="edge">
<title>N13&#45;&gt;N14</title>
<path fill="none" stroke="black" d="M2076,-159.7C2076,-151.98 2076,-142.71 2076,-134.11"/>
<polygon fill="black" stroke="black" points="2079.5,-134.1 2076,-124.1 2072.5,-134.1 2079.5,-134.1"/>
</g>
<!-- N16 -->
<g id="node17" class="node">
<title>N16</title>
<ellipse fill="#6495ed" stroke="black" cx="1745" cy="-106" rx="157.07" ry="18"/>
<text text-anchor="middle" x="1745" y="-102.3" font-family="Times,serif" font-size="14.00">zig build&#45;exe dwp Debug native</text>
</g>
<!-- N15&#45;&gt;N16 -->
<g id="edge14" class="edge">
<title>N15&#45;&gt;N16</title>
<path fill="none" stroke="black" d="M1745,-159.7C1745,-151.98 1745,-142.71 1745,-134.11"/>
<polygon fill="black" stroke="black" points="1748.5,-134.1 1745,-124.1 1741.5,-134.1 1748.5,-134.1"/>
</g>
<!-- N17 -->
<g id="node18" class="node">
<title>N17</title>
<ellipse fill="#00ffff" stroke="black" cx="1745" cy="-34" rx="44.69" ry="18"/>
<text text-anchor="middle" x="1745" y="-30.3" font-family="Times,serif" font-size="14.00">options</text>
</g>
<!-- N16&#45;&gt;N17 -->
<g id="edge15" class="edge">
<title>N16&#45;&gt;N17</title>
<path fill="none" stroke="black" d="M1745,-87.7C1745,-79.98 1745,-70.71 1745,-62.11"/>
<polygon fill="black" stroke="black" points="1748.5,-62.1 1745,-52.1 1741.5,-62.1 1748.5,-62.1"/>
</g>
<!-- N18 -->
<g id="node19" class="node">
<title>N18</title>
<ellipse fill="#ffffff" stroke="black" cx="1187" cy="-397" rx="64.19" ry="18"/>
<text text-anchor="middle" x="1187" y="-393.3" font-family="Times,serif" font-size="14.00">menuconfig</text>
</g>
<!-- N19 -->
<g id="node20" class="node">
<title>N19</title>
<ellipse fill="#bdb76b" stroke="black" cx="1187" cy="-325" rx="83.39" ry="18"/>
<text text-anchor="middle" x="1187" y="-321.3" font-family="Times,serif" font-size="14.00">run menuconfig</text>
</g>
<!-- N18&#45;&gt;N19 -->
<g id="edge16" class="edge">
<title>N18&#45;&gt;N19</title>
<path fill="none" stroke="black" d="M1187,-378.7C1187,-370.98 1187,-361.71 1187,-353.11"/>
<polygon fill="black" stroke="black" points="1190.5,-353.1 1187,-343.1 1183.5,-353.1 1190.5,-353.1"/>
</g>
<!-- N19&#45;&gt;N12 -->
<g id="edge17" class="edge">
<title>N19&#45;&gt;N12</title>
<path fill="none" stroke="black" d="M1226.9,-308.98C1253.85,-298.84 1289.74,-285.33 1319.21,-274.24"/>
<polygon fill="black" stroke="black" points="1320.81,-277.38 1328.93,-270.58 1318.34,-270.83 1320.81,-277.38"/>
</g>
<!-- N20 -->
<g id="node21" class="node">
<title>N20</title>
<ellipse fill="#ffffff" stroke="black" cx="1119" cy="-253" rx="44.69" ry="18"/>
<text text-anchor="middle" x="1119" y="-249.3" font-family="Times,serif" font-size="14.00">deppkg</text>
</g>
<!-- N20&#45;&gt;N1 -->
<g id="edge18" class="edge">
<title>N20&#45;&gt;N1</title>
<path fill="none" stroke="black" d="M1149.53,-239.62C1176.53,-228.67 1216.45,-212.48 1248.24,-199.58"/>
<polygon fill="black" stroke="black" points="1249.87,-202.7 1257.83,-195.7 1247.24,-196.21 1249.87,-202.7"/>
</g>
<!-- N21 -->
<g id="node22" class="node">
<title>N21</title>
<ellipse fill="#ffffff" stroke="black" cx="736" cy="-253" rx="41.69" ry="18"/>
<text text-anchor="middle" x="736" y="-249.3" font-family="Times,serif" font-size="14.00">zigpkg</text>
</g>
<!-- N22 -->
<g id="node23" class="node">
<title>N22</title>
<ellipse fill="#bdb76b" stroke="black" cx="736" cy="-178" rx="60.39" ry="18"/>
<text text-anchor="middle" x="736" y="-174.3" font-family="Times,serif" font-size="14.00">run zigpkg</text>
</g>
<!-- N21&#45;&gt;N22 -->
<g id="edge19" class="edge">
<title>N21&#45;&gt;N22</title>
<path fill="none" stroke="black" d="M736,-234.7C736,-226.25 736,-215.87 736,-206.37"/>
<polygon fill="black" stroke="black" points="739.5,-206.18 736,-196.18 732.5,-206.18 739.5,-206.18"/>
</g>
<!-- N22&#45;&gt;N6 -->
<g id="edge20" class="edge">
<title>N22&#45;&gt;N6</title>
<path fill="none" stroke="black" d="M735.26,-159.7C734.93,-151.98 734.53,-142.71 734.16,-134.11"/>
<polygon fill="black" stroke="black" points="737.66,-133.95 733.73,-124.1 730.66,-134.25 737.66,-133.95"/>
</g>
<!-- N23 -->
<g id="node24" class="node">
<title>N23</title>
<ellipse fill="#ffffff" stroke="black" cx="1028" cy="-253" rx="28.7" ry="18"/>
<text text-anchor="middle" x="1028" y="-249.3" font-family="Times,serif" font-size="14.00">test</text>
</g>
<!-- N23&#45;&gt;N7 -->
<g id="edge21" class="edge">
<title>N23&#45;&gt;N7</title>
<path fill="none" stroke="black" d="M1028,-234.7C1028,-226.25 1028,-215.87 1028,-206.37"/>
<polygon fill="black" stroke="black" points="1031.5,-206.18 1028,-196.18 1024.5,-206.18 1031.5,-206.18"/>
</g>
<!-- N24 -->
<g id="node25" class="node">
<title>N24</title>
<ellipse fill="#ffffff" stroke="black" cx="654" cy="-397" rx="27" ry="18"/>
<text text-anchor="middle" x="654" y="-393.3" font-family="Times,serif" font-size="14.00">dot</text>
</g>
<!-- N25 -->
<g id="node26" class="node">
<title>N25</title>
<ellipse fill="#ff44ff" stroke="black" cx="654" cy="-325" rx="99.38" ry="18"/>
<text text-anchor="middle" x="654" y="-321.3" font-family="Times,serif" font-size="14.00">UpdateSourceFiles</text>
</g>
<!-- N24&#45;&gt;N25 -->
<g id="edge22" class="edge">
<title>N24&#45;&gt;N25</title>
<path fill="none" stroke="black" d="M654,-378.7C654,-370.98 654,-361.71 654,-353.11"/>
<polygon fill="black" stroke="black" points="657.5,-353.1 654,-343.1 650.5,-353.1 657.5,-353.1"/>
</g>
<!-- N26 -->
<g id="node27" class="node">
<title>N26</title>
<ellipse fill="#bdb76b" stroke="black" cx="578" cy="-178" rx="79.09" ry="18"/>
<text text-anchor="middle" x="578" y="-174.3" font-family="Times,serif" font-size="14.00">dot generation</text>
</g>
<!-- N25&#45;&gt;N26 -->
<g id="edge23" class="edge">
<title>N25&#45;&gt;N26</title>
<path fill="none" stroke="black" d="M655.68,-306.84C656.73,-288.07 656.06,-257.64 644,-235 636.89,-221.66 625.18,-210.16 613.58,-201.11"/>
<polygon fill="black" stroke="black" points="615.35,-198.07 605.22,-194.96 611.2,-203.71 615.35,-198.07"/>
</g>
<!-- N27 -->
<g id="node28" class="node">
<title>N27</title>
<ellipse fill="#bdb76b" stroke="black" cx="578" cy="-253" rx="57.39" ry="18"/>
<text text-anchor="middle" x="578" y="-249.3" font-family="Times,serif" font-size="14.00">dot to svg</text>
</g>
<!-- N25&#45;&gt;N27 -->
<g id="edge24" class="edge">
<title>N25&#45;&gt;N27</title>
<path fill="none" stroke="black" d="M635.6,-307.05C625.85,-298.07 613.71,-286.9 603.11,-277.12"/>
<polygon fill="black" stroke="black" points="605.43,-274.51 595.7,-270.31 600.69,-279.66 605.43,-274.51"/>
</g>
<!-- N26&#45;&gt;N6 -->
<g id="edge25" class="edge">
<title>N26&#45;&gt;N6</title>
<path fill="none" stroke="black" d="M612.02,-161.64C633.96,-151.73 662.79,-138.71 686.81,-127.86"/>
<polygon fill="black" stroke="black" points="688.41,-130.98 696.09,-123.67 685.53,-124.6 688.41,-130.98"/>
</g>
<!-- N27&#45;&gt;N26 -->
<g id="edge26" class="edge">
<title>N27&#45;&gt;N26</title>
<path fill="none" stroke="black" d="M578,-234.7C578,-226.25 578,-215.87 578,-206.37"/>
<polygon fill="black" stroke="black" points="581.5,-206.18 578,-196.18 574.5,-206.18 581.5,-206.18"/>
</g>
<!-- N28 -->
<g id="node29" class="node">
<title>N28</title>
<ellipse fill="#ffffff" stroke="black" cx="493" cy="-397" rx="27" ry="18"/>
<text text-anchor="middle" x="493" y="-393.3" font-family="Times,serif" font-size="14.00">fmt</text>
</g>
<!-- N29 -->
<g id="node30" class="node">
<title>N29</title>
<ellipse fill="#ffff00" stroke="black" cx="493" cy="-325" rx="43.59" ry="18"/>
<text text-anchor="middle" x="493" y="-321.3" font-family="Times,serif" font-size="14.00">zig fmt</text>
</g>
<!-- N28&#45;&gt;N29 -->
<g id="edge27" class="edge">
<title>N28&#45;&gt;N29</title>
<path fill="none" stroke="black" d="M493,-378.7C493,-370.98 493,-361.71 493,-353.11"/>
<polygon fill="black" stroke="black" points="496.5,-353.1 493,-343.1 489.5,-353.1 496.5,-353.1"/>
</g>
<!-- N30 -->
<g id="node31" class="node">
<title>N30</title>
<ellipse fill="#ffffff" stroke="black" cx="223" cy="-397" rx="90.98" ry="18"/>
<text text-anchor="middle" x="223" y="-393.3" font-family="Times,serif" font-size="14.00">update&#45;build&#45;tree</text>
</g>
<!-- N31 -->
<g id="node32" class="node">
<title>N31</title>
<ellipse fill="#ff44ff" stroke="black" cx="115" cy="-325" rx="99.38" ry="18"/>
<text text-anchor="middle" x="115" y="-321.3" font-family="Times,serif" font-size="14.00">UpdateSourceFiles</text>
</g>
<!-- N30&#45;&gt;N31 -->
<g id="edge28" class="edge">
<title>N30&#45;&gt;N31</title>
<path fill="none" stroke="black" d="M197.68,-379.59C183.16,-370.18 164.74,-358.24 148.98,-348.02"/>
<polygon fill="black" stroke="black" points="150.83,-345.05 140.54,-342.55 147.02,-350.93 150.83,-345.05"/>
</g>
<!-- N32 -->
<g id="node33" class="node">
<title>N32</title>
<ellipse fill="#ff44ff" stroke="black" cx="332" cy="-325" rx="99.38" ry="18"/>
<text text-anchor="middle" x="332" y="-321.3" font-family="Times,serif" font-size="14.00">UpdateSourceFiles</text>
</g>
<!-- N30&#45;&gt;N32 -->
<g id="edge29" class="edge">
<title>N30&#45;&gt;N32</title>
<path fill="none" stroke="black" d="M248.56,-379.59C263.21,-370.18 281.8,-358.24 297.71,-348.02"/>
<polygon fill="black" stroke="black" points="299.7,-350.9 306.23,-342.55 295.92,-345.01 299.7,-350.9"/>
</g>
</g>
</svg>
