<?xml version="1.0" encoding="UTF-8" standalone="no"?>
<!DOCTYPE svg PUBLIC "-//W3C//DTD SVG 1.1//EN"
 "http://www.w3.org/Graphics/SVG/1.1/DTD/svg11.dtd">
<!-- Generated by graphviz version 2.42.4 (0)
 -->
<!-- Pages: 1 -->
<svg width="1529pt" height="404pt"
 viewBox="0.00 0.00 1528.83 404.00" xmlns="http://www.w3.org/2000/svg" xmlns:xlink="http://www.w3.org/1999/xlink">
<g id="graph0" class="graph" transform="scale(1 1) rotate(0) translate(4 400)">
<polygon fill="white" stroke="transparent" points="-4,4 -4,-400 1524.83,-400 1524.83,4 -4,4"/>
<!-- N0 -->
<g id="node1" class="node">
<title>N0</title>
<ellipse fill="none" stroke="black" cx="941.34" cy="-378" rx="39.79" ry="18"/>
<text text-anchor="middle" x="941.34" y="-374.3" font-family="Times,serif" font-size="14.00">install</text>
</g>
<!-- N1 -->
<g id="node2" class="node">
<title>N1</title>
<ellipse fill="none" stroke="black" cx="458.34" cy="-306" rx="96.38" ry="18"/>
<text text-anchor="middle" x="458.34" y="-302.3" font-family="Times,serif" font-size="14.00">install menuconfig</text>
</g>
<!-- N0&#45;&gt;N1 -->
<g id="edge1" class="edge">
<title>N0&#45;&gt;N1</title>
<path fill="none" stroke="black" d="M904.24,-371.62C827.2,-360.46 648.23,-334.52 541.93,-319.11"/>
<polygon fill="black" stroke="black" points="542.27,-315.63 531.87,-317.66 541.27,-322.56 542.27,-315.63"/>
</g>
<!-- N2 -->
<g id="node3" class="node">
<title>N2</title>
<ellipse fill="none" stroke="black" cx="793.34" cy="-306" rx="205.26" ry="18"/>
<text text-anchor="middle" x="793.34" y="-302.3" font-family="Times,serif" font-size="14.00">install generated to deppkg/deppkg.tar.gz</text>
</g>
<!-- N0&#45;&gt;N2 -->
<g id="edge2" class="edge">
<title>N0&#45;&gt;N2</title>
<path fill="none" stroke="black" d="M914.88,-364.49C893.57,-354.41 863.14,-340.02 838.07,-328.16"/>
<polygon fill="black" stroke="black" points="839.28,-324.86 828.75,-323.75 836.29,-331.19 839.28,-324.86"/>
</g>
<!-- N3 -->
<g id="node4" class="node">
<title>N3</title>
<ellipse fill="none" stroke="black" cx="1105.34" cy="-306" rx="73.39" ry="18"/>
<text text-anchor="middle" x="1105.34" y="-302.3" font-family="Times,serif" font-size="14.00">install zigpkg</text>
</g>
<!-- N0&#45;&gt;N3 -->
<g id="edge3" class="edge">
<title>N0&#45;&gt;N3</title>
<path fill="none" stroke="black" d="M969.16,-365.13C994.39,-354.36 1032.01,-338.3 1061.32,-325.79"/>
<polygon fill="black" stroke="black" points="1062.7,-329 1070.52,-321.86 1059.95,-322.57 1062.7,-329"/>
</g>
<!-- N4 -->
<g id="node5" class="node">
<title>N4</title>
<ellipse fill="none" stroke="black" cx="1331.34" cy="-306" rx="48.19" ry="18"/>
<text text-anchor="middle" x="1331.34" y="-302.3" font-family="Times,serif" font-size="14.00">run test</text>
</g>
<!-- N0&#45;&gt;N4 -->
<g id="edge4" class="edge">
<title>N0&#45;&gt;N4</title>
<path fill="none" stroke="black" d="M977.68,-370.48C1047.04,-358.03 1198.54,-330.84 1278.88,-316.41"/>
<polygon fill="black" stroke="black" points="1279.56,-319.85 1288.79,-314.64 1278.33,-312.96 1279.56,-319.85"/>
</g>
<!-- N5 -->
<g id="node6" class="node">
<title>N5</title>
<ellipse fill="none" stroke="black" cx="434.34" cy="-234" rx="191.17" ry="18"/>
<text text-anchor="middle" x="434.34" y="-230.3" font-family="Times,serif" font-size="14.00">zig build&#45;exe menuconfig Debug native</text>
</g>
<!-- N1&#45;&gt;N5 -->
<g id="edge5" class="edge">
<title>N1&#45;&gt;N5</title>
<path fill="none" stroke="black" d="M452.4,-287.7C449.73,-279.9 446.51,-270.51 443.53,-261.83"/>
<polygon fill="black" stroke="black" points="446.75,-260.43 440.2,-252.1 440.13,-262.7 446.75,-260.43"/>
</g>
<!-- N11 -->
<g id="node12" class="node">
<title>N11</title>
<ellipse fill="none" stroke="black" cx="785.34" cy="-234" rx="141.88" ry="18"/>
<text text-anchor="middle" x="785.34" y="-230.3" font-family="Times,serif" font-size="14.00">run pkg&#45;targz (depkg.tar.gz)</text>
</g>
<!-- N2&#45;&gt;N11 -->
<g id="edge11" class="edge">
<title>N2&#45;&gt;N11</title>
<path fill="none" stroke="black" d="M791.36,-287.7C790.48,-279.98 789.42,-270.71 788.43,-262.11"/>
<polygon fill="black" stroke="black" points="791.9,-261.64 787.29,-252.1 784.95,-262.44 791.9,-261.64"/>
</g>
<!-- N13 -->
<g id="node14" class="node">
<title>N13</title>
<ellipse fill="none" stroke="black" cx="1113.34" cy="-234" rx="168.17" ry="18"/>
<text text-anchor="middle" x="1113.34" y="-230.3" font-family="Times,serif" font-size="14.00">zig build&#45;exe zigpkg Debug native</text>
</g>
<!-- N3&#45;&gt;N13 -->
<g id="edge13" class="edge">
<title>N3&#45;&gt;N13</title>
<path fill="none" stroke="black" d="M1107.31,-287.7C1108.2,-279.98 1109.25,-270.71 1110.24,-262.11"/>
<polygon fill="black" stroke="black" points="1113.72,-262.44 1111.38,-252.1 1106.77,-261.64 1113.72,-262.44"/>
</g>
<!-- N14 -->
<g id="node15" class="node">
<title>N14</title>
<ellipse fill="none" stroke="black" cx="1410.34" cy="-234" rx="110.48" ry="18"/>
<text text-anchor="middle" x="1410.34" y="-230.3" font-family="Times,serif" font-size="14.00">zig test Debug native</text>
</g>
<!-- N4&#45;&gt;N14 -->
<g id="edge14" class="edge">
<title>N4&#45;&gt;N14</title>
<path fill="none" stroke="black" d="M1349.26,-289.12C1359.47,-280.07 1372.45,-268.57 1383.82,-258.49"/>
<polygon fill="black" stroke="black" points="1386.22,-261.05 1391.38,-251.8 1381.57,-255.81 1386.22,-261.05"/>
</g>
<!-- N6 -->
<g id="node7" class="node">
<title>N6</title>
<ellipse fill="none" stroke="black" cx="209.34" cy="-162" rx="100.18" ry="18"/>
<text text-anchor="middle" x="209.34" y="-158.3" font-family="Times,serif" font-size="14.00">run gbp (gbp.bin.z)</text>
</g>
<!-- N5&#45;&gt;N6 -->
<g id="edge6" class="edge">
<title>N5&#45;&gt;N6</title>
<path fill="none" stroke="black" d="M381.87,-216.68C347.45,-205.97 302.42,-191.96 267,-180.94"/>
<polygon fill="black" stroke="black" points="267.87,-177.54 257.28,-177.92 265.79,-184.23 267.87,-177.54"/>
</g>
<!-- N7 -->
<g id="node8" class="node">
<title>N7</title>
<ellipse fill="none" stroke="black" cx="458.34" cy="-162" rx="103.98" ry="18"/>
<text text-anchor="middle" x="458.34" y="-158.3" font-family="Times,serif" font-size="14.00">run dwp (dwp.bin.z)</text>
</g>
<!-- N5&#45;&gt;N7 -->
<g id="edge7" class="edge">
<title>N5&#45;&gt;N7</title>
<path fill="none" stroke="black" d="M440.27,-215.7C442.94,-207.9 446.16,-198.51 449.14,-189.83"/>
<polygon fill="black" stroke="black" points="452.54,-190.7 452.47,-180.1 445.92,-188.43 452.54,-190.7"/>
</g>
<!-- N8 -->
<g id="node9" class="node">
<title>N8</title>
<ellipse fill="none" stroke="black" cx="155.34" cy="-90" rx="155.17" ry="18"/>
<text text-anchor="middle" x="155.34" y="-86.3" font-family="Times,serif" font-size="14.00">zig build&#45;exe gbp Debug native</text>
</g>
<!-- N6&#45;&gt;N8 -->
<g id="edge8" class="edge">
<title>N6&#45;&gt;N8</title>
<path fill="none" stroke="black" d="M196.26,-144.05C189.86,-135.75 182.02,-125.58 174.91,-116.38"/>
<polygon fill="black" stroke="black" points="177.54,-114.06 168.66,-108.28 172,-118.33 177.54,-114.06"/>
</g>
<!-- N9 -->
<g id="node10" class="node">
<title>N9</title>
<ellipse fill="none" stroke="black" cx="486.34" cy="-90" rx="157.07" ry="18"/>
<text text-anchor="middle" x="486.34" y="-86.3" font-family="Times,serif" font-size="14.00">zig build&#45;exe dwp Debug native</text>
</g>
<!-- N7&#45;&gt;N9 -->
<g id="edge9" class="edge">
<title>N7&#45;&gt;N9</title>
<path fill="none" stroke="black" d="M465.26,-143.7C468.41,-135.81 472.21,-126.3 475.72,-117.55"/>
<polygon fill="black" stroke="black" points="479.03,-118.69 479.49,-108.1 472.53,-116.09 479.03,-118.69"/>
</g>
<!-- N10 -->
<g id="node11" class="node">
<title>N10</title>
<ellipse fill="none" stroke="black" cx="486.34" cy="-18" rx="44.69" ry="18"/>
<text text-anchor="middle" x="486.34" y="-14.3" font-family="Times,serif" font-size="14.00">options</text>
</g>
<!-- N9&#45;&gt;N10 -->
<g id="edge10" class="edge">
<title>N9&#45;&gt;N10</title>
<path fill="none" stroke="black" d="M486.34,-71.7C486.34,-63.98 486.34,-54.71 486.34,-46.11"/>
<polygon fill="black" stroke="black" points="489.84,-46.1 486.34,-36.1 482.84,-46.1 489.84,-46.1"/>
</g>
<!-- N12 -->
<g id="node13" class="node">
<title>N12</title>
<ellipse fill="none" stroke="black" cx="785.34" cy="-162" rx="181.97" ry="18"/>
<text text-anchor="middle" x="785.34" y="-158.3" font-family="Times,serif" font-size="14.00">zig build&#45;exe pkg&#45;targz Debug native</text>
</g>
<!-- N11&#45;&gt;N12 -->
<g id="edge12" class="edge">
<title>N11&#45;&gt;N12</title>
<path fill="none" stroke="black" d="M785.34,-215.7C785.34,-207.98 785.34,-198.71 785.34,-190.11"/>
<polygon fill="black" stroke="black" points="788.84,-190.1 785.34,-180.1 781.84,-190.1 788.84,-190.1"/>
</g>
</g>
</svg>
