<?xml version="1.0" encoding="UTF-8" standalone="no"?>
<!DOCTYPE svg PUBLIC "-//W3C//DTD SVG 1.1//EN"
 "http://www.w3.org/Graphics/SVG/1.1/DTD/svg11.dtd">
<!-- Generated by graphviz version 2.42.4 (0)
 -->
<!-- Pages: 1 -->
<svg width="1290pt" height="404pt"
 viewBox="0.00 0.00 1289.67 404.00" xmlns="http://www.w3.org/2000/svg" xmlns:xlink="http://www.w3.org/1999/xlink">
<g id="graph0" class="graph" transform="scale(1 1) rotate(0) translate(4 400)">
<!-- 79fcf6217de8 -->
<g id="node1" class="node">
<title>79fcf6217de8</title>
<ellipse fill="none" stroke="black" cx="785.34" cy="-378" rx="39.79" ry="18"/>
<text text-anchor="middle" x="785.34" y="-374.3" font-family="Times,serif" font-size="14.00">install</text>
</g>
<!-- 79fcf520cdf8 -->
<g id="node2" class="node">
<title>79fcf520cdf8</title>
<ellipse fill="none" stroke="black" cx="450.34" cy="-306" rx="96.38" ry="18"/>
<text text-anchor="middle" x="450.34" y="-302.3" font-family="Times,serif" font-size="14.00">install menuconfig</text>
</g>
<!-- 79fcf6217de8&#45;&gt;79fcf520cdf8 -->
<g id="edge1" class="edge">
<title>79fcf6217de8&#45;&gt;79fcf520cdf8</title>
<path fill="none" stroke="black" d="M750.12,-369.64C696.24,-358.38 592.23,-336.65 522.03,-321.98"/>
<polygon fill="black" stroke="black" points="522.44,-318.49 511.93,-319.87 521,-325.34 522.44,-318.49"/>
</g>
<!-- 79fcf51dddd8 -->
<g id="node3" class="node">
<title>79fcf51dddd8</title>
<ellipse fill="none" stroke="black" cx="785.34" cy="-306" rx="205.26" ry="18"/>
<text text-anchor="middle" x="785.34" y="-302.3" font-family="Times,serif" font-size="14.00">install generated to deppkg/deppkg.tar.gz</text>
</g>
<!-- 79fcf6217de8&#45;&gt;79fcf51dddd8 -->
<g id="edge2" class="edge">
<title>79fcf6217de8&#45;&gt;79fcf51dddd8</title>
<path fill="none" stroke="black" d="M785.34,-359.7C785.34,-351.98 785.34,-342.71 785.34,-334.11"/>
<polygon fill="black" stroke="black" points="788.84,-334.1 785.34,-324.1 781.84,-334.1 788.84,-334.1"/>
</g>
<!-- 79fcf51dec40 -->
<g id="node4" class="node">
<title>79fcf51dec40</title>
<ellipse fill="none" stroke="black" cx="1097.34" cy="-306" rx="73.39" ry="18"/>
<text text-anchor="middle" x="1097.34" y="-302.3" font-family="Times,serif" font-size="14.00">install zigpkg</text>
</g>
<!-- 79fcf6217de8&#45;&gt;79fcf51dec40 -->
<g id="edge3" class="edge">
<title>79fcf6217de8&#45;&gt;79fcf51dec40</title>
<path fill="none" stroke="black" d="M820.22,-369.17C872.14,-357.52 970.55,-335.45 1035.03,-320.98"/>
<polygon fill="black" stroke="black" points="1036.08,-324.33 1045.08,-318.73 1034.55,-317.5 1036.08,-324.33"/>
</g>
<!-- 79fcf520c9f8 -->
<g id="node5" class="node">
<title>79fcf520c9f8</title>
<ellipse fill="none" stroke="black" cx="434.34" cy="-234" rx="191.17" ry="18"/>
<text text-anchor="middle" x="434.34" y="-230.3" font-family="Times,serif" font-size="14.00">zig build&#45;exe menuconfig Debug native</text>
</g>
<!-- 79fcf520cdf8&#45;&gt;79fcf520c9f8 -->
<g id="edge4" class="edge">
<title>79fcf520cdf8&#45;&gt;79fcf520c9f8</title>
<path fill="none" stroke="black" d="M446.38,-287.7C444.62,-279.98 442.5,-270.71 440.53,-262.11"/>
<polygon fill="black" stroke="black" points="443.89,-261.07 438.25,-252.1 437.06,-262.63 443.89,-261.07"/>
</g>
<!-- 79fcf51d7628 -->
<g id="node11" class="node">
<title>79fcf51d7628</title>
<ellipse fill="none" stroke="black" cx="785.34" cy="-234" rx="141.88" ry="18"/>
<text text-anchor="middle" x="785.34" y="-230.3" font-family="Times,serif" font-size="14.00">run pkg&#45;targz (depkg.tar.gz)</text>
</g>
<!-- 79fcf51dddd8&#45;&gt;79fcf51d7628 -->
<g id="edge10" class="edge">
<title>79fcf51dddd8&#45;&gt;79fcf51d7628</title>
<path fill="none" stroke="black" d="M785.34,-287.7C785.34,-279.98 785.34,-270.71 785.34,-262.11"/>
<polygon fill="black" stroke="black" points="788.84,-262.1 785.34,-252.1 781.84,-262.1 788.84,-262.1"/>
</g>
<!-- 79fcf51de840 -->
<g id="node13" class="node">
<title>79fcf51de840</title>
<ellipse fill="none" stroke="black" cx="1113.34" cy="-234" rx="168.17" ry="18"/>
<text text-anchor="middle" x="1113.34" y="-230.3" font-family="Times,serif" font-size="14.00">zig build&#45;exe zigpkg Debug native</text>
</g>
<!-- 79fcf51dec40&#45;&gt;79fcf51de840 -->
<g id="edge12" class="edge">
<title>79fcf51dec40&#45;&gt;79fcf51de840</title>
<path fill="none" stroke="black" d="M1101.29,-287.7C1103.05,-279.98 1105.17,-270.71 1107.14,-262.11"/>
<polygon fill="black" stroke="black" points="1110.61,-262.63 1109.43,-252.1 1103.79,-261.07 1110.61,-262.63"/>
</g>
<!-- 79fcf5202f80 -->
<g id="node6" class="node">
<title>79fcf5202f80</title>
<ellipse fill="none" stroke="black" cx="209.34" cy="-162" rx="100.18" ry="18"/>
<text text-anchor="middle" x="209.34" y="-158.3" font-family="Times,serif" font-size="14.00">run gbp (gbp.bin.z)</text>
</g>
<!-- 79fcf520c9f8&#45;&gt;79fcf5202f80 -->
<g id="edge5" class="edge">
<title>79fcf520c9f8&#45;&gt;79fcf5202f80</title>
<path fill="none" stroke="black" d="M381.87,-216.68C347.45,-205.97 302.42,-191.96 267,-180.94"/>
<polygon fill="black" stroke="black" points="267.87,-177.54 257.28,-177.92 265.79,-184.23 267.87,-177.54"/>
</g>
<!-- 79fcf5204a18 -->
<g id="node7" class="node">
<title>79fcf5204a18</title>
<ellipse fill="none" stroke="black" cx="458.34" cy="-162" rx="103.98" ry="18"/>
<text text-anchor="middle" x="458.34" y="-158.3" font-family="Times,serif" font-size="14.00">run dwp (dwp.bin.z)</text>
</g>
<!-- 79fcf520c9f8&#45;&gt;79fcf5204a18 -->
<g id="edge6" class="edge">
<title>79fcf520c9f8&#45;&gt;79fcf5204a18</title>
<path fill="none" stroke="black" d="M440.27,-215.7C442.94,-207.9 446.16,-198.51 449.14,-189.83"/>
<polygon fill="black" stroke="black" points="452.54,-190.7 452.47,-180.1 445.92,-188.43 452.54,-190.7"/>
</g>
<!-- 79fcf5202b80 -->
<g id="node8" class="node">
<title>79fcf5202b80</title>
<ellipse fill="none" stroke="black" cx="155.34" cy="-90" rx="155.17" ry="18"/>
<text text-anchor="middle" x="155.34" y="-86.3" font-family="Times,serif" font-size="14.00">zig build&#45;exe gbp Debug native</text>
</g>
<!-- 79fcf5202f80&#45;&gt;79fcf5202b80 -->
<g id="edge7" class="edge">
<title>79fcf5202f80&#45;&gt;79fcf5202b80</title>
<path fill="none" stroke="black" d="M196.26,-144.05C189.86,-135.75 182.02,-125.58 174.91,-116.38"/>
<polygon fill="black" stroke="black" points="177.54,-114.06 168.66,-108.28 172,-118.33 177.54,-114.06"/>
</g>
<!-- 79fcf5203f90 -->
<g id="node9" class="node">
<title>79fcf5203f90</title>
<ellipse fill="none" stroke="black" cx="486.34" cy="-90" rx="157.07" ry="18"/>
<text text-anchor="middle" x="486.34" y="-86.3" font-family="Times,serif" font-size="14.00">zig build&#45;exe dwp Debug native</text>
</g>
<!-- 79fcf5204a18&#45;&gt;79fcf5203f90 -->
<g id="edge8" class="edge">
<title>79fcf5204a18&#45;&gt;79fcf5203f90</title>
<path fill="none" stroke="black" d="M465.26,-143.7C468.41,-135.81 472.21,-126.3 475.72,-117.55"/>
<polygon fill="black" stroke="black" points="479.03,-118.69 479.49,-108.1 472.53,-116.09 479.03,-118.69"/>
</g>
<!-- 79fcf52035d8 -->
<g id="node10" class="node">
<title>79fcf52035d8</title>
<ellipse fill="none" stroke="black" cx="486.34" cy="-18" rx="44.69" ry="18"/>
<text text-anchor="middle" x="486.34" y="-14.3" font-family="Times,serif" font-size="14.00">options</text>
</g>
<!-- 79fcf5203f90&#45;&gt;79fcf52035d8 -->
<g id="edge9" class="edge">
<title>79fcf5203f90&#45;&gt;79fcf52035d8</title>
<path fill="none" stroke="black" d="M486.34,-71.7C486.34,-63.98 486.34,-54.71 486.34,-46.11"/>
<polygon fill="black" stroke="black" points="489.84,-46.1 486.34,-36.1 482.84,-46.1 489.84,-46.1"/>
</g>
<!-- 79fcf51d7218 -->
<g id="node12" class="node">
<title>79fcf51d7218</title>
<ellipse fill="none" stroke="black" cx="785.34" cy="-162" rx="181.97" ry="18"/>
<text text-anchor="middle" x="785.34" y="-158.3" font-family="Times,serif" font-size="14.00">zig build&#45;exe pkg&#45;targz Debug native</text>
</g>
<!-- 79fcf51d7628&#45;&gt;79fcf51d7218 -->
<g id="edge11" class="edge">
<title>79fcf51d7628&#45;&gt;79fcf51d7218</title>
<path fill="none" stroke="black" d="M785.34,-215.7C785.34,-207.98 785.34,-198.71 785.34,-190.11"/>
<polygon fill="black" stroke="black" points="788.84,-190.1 785.34,-180.1 781.84,-190.1 788.84,-190.1"/>
</g>
</g>
</svg>
